<svg height="1360" viewBox="0 0 1020 1020" width="1360" xmlns="http://www.w3.org/2000/svg"><path d="m465.5 2.1c-54.7 5.7-94.9 15.3-142.6 34-18.9 7.4-49.1 22-66.6 32-22.3 12.8-56.3 36.1-56.3 38.5 0 .8-.7 1.4-1.6 1.4-3.6 0-31 23.9-52 45.2-20 20.3-25.6 26.9-24.4 28.3 2.5 3.1-3.5 10.9-7.5 9.9-2.5-.6-3.9.9-4 4.1 0 1.2-.7 2-1.7 2-2.6 0-8.8 8.8-8.1 11.5.5 2 .3 2.2-1.4 1.8-1.7-.5-3.8 2.1-13.1 16.1-22.9 34.6-39.6 67.1-53.9 105-4.2 11.2-5.1 14.6-4.1 15.2 1 .7.9.9-.3.9-2.4 0-11.7 32.2-17.5 60.3-2.9 14.6-2.9 15-.2 16.2 1.2.6 2.3 1.5 2.5 2.1.6 1.9-2.5 4.3-4.7 3.7-1.4-.4-2 0-2 1.2 0 .9-.7 6.9-1.5 13.3-2.1 16.5-4.4 50.6-4.4 64.2 0 14 2.4 50.1 4.4 66.5 2.3 18.3 6.2 39.1 11.2 59 7 28.3 22.3 72.3 26 75 .9.7 1.3 1.7.9 2.4-.7 1.1 15.2 34.5 23 48.1 69.4 122.3 183.3 209.4 318.9 244 31.3 7.9 55.7 11.8 91 14.5 51.9 3.9 106.4-.9 159-14.1 111.9-27.9 212.1-94.1 281.8-186.1 4.4-5.9 7.5-10.8 7.1-11.6-.3-.9.3-1.6 1.5-2 1.2-.3 5.7-6.2 11.4-14.8 34.1-52.2 58.2-109.3 71.6-169.9 5.7-25.9 8.3-44.5 10.6-76 1.9-26 1.9-43.4 0-68-4.6-58.8-15-104.9-35-155.5-9.9-25-37.2-77.5-44.2-85.1-1.2-1.4-2.2-2.7-2.1-3 .2-.9-10.6-16.7-19.8-28.9-58.6-78.1-136.1-136-228.4-170.5-46.8-17.6-90.2-27.2-138.9-31-15.7-1.2-72.9-1.1-84.6.1zm16.5 13.9c0 .5-.4 1-1 1-.5 0-1-.5-1-1 0-.6.5-1 1-1 .6 0 1 .4 1 1zm-46.6 13.1c-.3.5-1 .7-1.5.3-.5-.3-.7-1-.3-1.5.3-.5 1-.7 1.5-.3.5.3.7 1 .3 1.5zm171.6-1.1c0 .5-.2 1-.4 1-.3 0-.8-.5-1.1-1-.3-.6-.1-1 .4-1 .6 0 1.1.4 1.1 1zm7 6.4c1 1.3.9 2-.4 4.1-2 3.1-5 3.2-7 .3s-2-3.4.4-5.8c2.2-2.2 4.3-1.7 7 1.4zm-51 13.6c0 .5-.4 1-1 1-.5 0-1-.5-1-1 0-.6.5-1 1-1 .6 0 1 .4 1 1zm1.6 6.8c.6.4 1.6 1.6 2.2 2.8.9 1.7.7 2.5-.9 4.3-2.4 2.5-2.8 2.6-5.7.5-2.6-1.8-2.8-4.1-.5-6.6 1.7-1.9 3.1-2.2 4.9-1zm-149.6 2.8c0 .8-.7 1.4-1.5 1.4-1.5 0-2.1-2.1-.9-3.3 1-.9 2.4.2 2.4 1.9zm23 2.4c0 .5-.4 1-1 1-.5 0-1-.5-1-1 0-.6.5-1 1-1 .6 0 1 .4 1 1zm-162 7c0 .5-.5 1-1.1 1-.5 0-.7-.5-.4-1 .3-.6.8-1 1.1-1 .2 0 .4.4.4 1zm158 1.5c0 .8-.7 1.5-1.5 1.5s-1.5-.7-1.5-1.5.7-1.5 1.5-1.5 1.5.7 1.5 1.5zm-142.6 4c1.1 3-.5 6.3-4 8-1.9.9-3.4 2-3.4 2.4 0 1.3-2.7 2.1-4.5 1.5-1.8-.7-2-6.3-.2-6.9.6-.3 1.3-1.7 1.4-3.2 0-1.5 1.1-3.4 2.4-4.4 2-1.5 2.7-1.6 5-.4 1.5.8 2.9 2.2 3.3 3zm224.6-3.5c0 .5-.4 1-1 1-.5 0-1-.5-1-1 0-.6.5-1 1-1 .6 0 1 .4 1 1zm116 3c0 .5-.4 1-1 1-.5 0-1-.5-1-1 0-.6.5-1 1-1 .6 0 1 .4 1 1zm-230.1 1.7c1.2 2.3-.4 5.3-2.9 5.3-2.3 0-3.6-3.6-2-5.5 1.7-2 3.7-1.9 4.9.2zm320.1 7.3c0 .5-.4 1-1 1-.5 0-1-.5-1-1 0-.6.5-1 1-1 .6 0 1 .4 1 1zm-120 1c0 .5-.2 1-.4 1-.3 0-.8-.5-1.1-1-.3-.6-.1-1 .4-1 .6 0 1.1.4 1.1 1zm-365.6 10.1c-.3.5-1 .7-1.5.3-.5-.3-.7-1-.3-1.5.3-.5 1-.7 1.5-.3.5.3.7 1 .3 1.5zm473.6-.6c0 .8-.4 1.5-1 1.5-.5 0-1-.7-1-1.5s.5-1.5 1-1.5c.6 0 1 .7 1 1.5zm-233 2.5c0 .5-.2 1-.4 1-.3 0-.8-.5-1.1-1-.3-.6-.1-1 .4-1 .6 0 1.1.4 1.1 1zm253 2.9c0 2.6-2.1 4.3-3.7 3-1.6-1.4-1.7-3.1-.2-4.6s3.9-.5 3.9 1.6zm-12-.9c0 .5-.4 1-1 1-.5 0-1-.5-1-1 0-.6.5-1 1-1 .6 0 1 .4 1 1zm57 1.5c0 .8-.4 1.5-1 1.5-.5 0-1-.7-1-1.5s.5-1.5 1-1.5c.6 0 1 .7 1 1.5zm-163 4.1c0 .8-.7 1.4-1.5 1.4-1.5 0-2.1-2.1-.9-3.3 1-.9 2.4.2 2.4 1.9zm78-.1c0 .8-.7 1.5-1.5 1.5s-1.5-.7-1.5-1.5.7-1.5 1.5-1.5 1.5.7 1.5 1.5zm-386.6 3.6c-.3.5-1 .7-1.5.3-.5-.3-.7-1-.3-1.5.3-.5 1-.7 1.5-.3.5.3.7 1 .3 1.5zm-6.4-.1c0 .5-.4 1-1 1-.5 0-1-.5-1-1 0-.6.5-1 1-1 .6 0 1 .4 1 1zm-17.9 2.1c.9 1.7.8 2.5-.4 3.7-1.9 1.8-4.7.9-4.7-1.6 0-1.8 1.8-4.2 3.2-4.2.4 0 1.2 1 1.9 2.1zm391.9-1.1c0 .5-.2 1-.4 1-.3 0-.8-.5-1.1-1-.3-.6-.1-1 .4-1 .6 0 1.1.4 1.1 1zm-424 2.1c0 .5-.7.9-1.5.9-1.5 0-2-1.2-.9-2.3.8-.8 2.4.1 2.4 1.4zm20.4 0c-.3.5-1 .7-1.5.3-.5-.3-.7-1-.3-1.5.3-.5 1-.7 1.5-.3.5.3.7 1 .3 1.5zm451 1c-.3.5-1 .7-1.5.3-.5-.3-.7-1-.3-1.5.3-.5 1-.7 1.5-.3.5.3.7 1 .3 1.5zm-308.4 1.4c0 .8-.7 1.5-1.5 1.5s-1.5-.7-1.5-1.5.7-1.5 1.5-1.5 1.5.7 1.5 1.5zm354 1.5c0 .5-.4 1-1 1-.5 0-1-.5-1-1 0-.6.5-1 1-1 .6 0 1 .4 1 1zm-101 2c0 .5-.7 1-1.5 1s-1.5-.5-1.5-1c0-.6.7-1 1.5-1s1.5.4 1.5 1zm-266.6 4.1c-.3.5-1 .7-1.5.3-.5-.3-.7-1-.3-1.5.3-.5 1-.7 1.5-.3.5.3.7 1 .3 1.5zm25.1-1.1c.3.5.1 1-.4 1-.6 0-1.1-.5-1.1-1 0-.6.2-1 .4-1 .3 0 .8.4 1.1 1zm16.7.5c0 .5-.5 1.1-1.1 1.3s-1.1-.4-1.1-1.3.5-1.5 1.1-1.3 1.1.8 1.1 1.3zm289.8 2.6c0 .5-.7.9-1.5.9-.9 0-1.2-.6-.9-1.5.6-1.5 2.4-1.1 2.4.6zm-401.6 3c-.3.5-1 .7-1.5.3-.5-.3-.7-1-.3-1.5.3-.5 1-.7 1.5-.3.5.3.7 1 .3 1.5zm-65.9 2.4c0 2.5-.4 3-2.7 3.3-2.5.3-2.8 0-2.8-2.6 0-3.5.8-4.4 3.5-4 1.5.2 2 1 2 3.3zm53.3-2.4c-.2.6-.8 1-1.3 1s-1.1-.4-1.3-1 .4-1.1 1.3-1.1 1.5.5 1.3 1.1zm447.2.4c0 .8-.4 1.5-.9 1.5-1.3 0-2.2-1.6-1.4-2.4 1.1-1.1 2.3-.6 2.3.9zm-442 .5c0 .5-.4 1-1 1-.5 0-1-.5-1-1 0-.6.5-1 1-1 .6 0 1 .4 1 1zm-93 1c0 .5-.5 1-1.1 1-.5 0-.7-.5-.4-1 .3-.6.8-1 1.1-1 .2 0 .4.4.4 1zm125 1c0 .5-.4 1-1 1-.5 0-1-.5-1-1 0-.6.5-1 1-1 .6 0 1 .4 1 1zm110.7.6c.8 2.1-1.3 4.2-2.8 2.7-1.3-1.3-.5-4.3 1.1-4.3.6 0 1.3.7 1.7 1.6zm77.3 2.9c0 .8-.7 1.5-1.5 1.5-1.6 0-2-1.2-.8-2.3 1.1-1.2 2.3-.8 2.3.8zm-152.2.6c-.2.6-.8 1-1.3 1s-1.1-.4-1.3-1 .4-1.1 1.3-1.1 1.5.5 1.3 1.1zm-148.3.9c.3.5-.1 1-1 1s-1.3-.5-1-1c.3-.6.8-1 1-1s.7.4 1 1zm30.5 0c0 .5-.4 1-1 1-.5 0-1-.5-1-1 0-.6.5-1 1-1 .6 0 1 .4 1 1zm-83 1c0 .5-.4 1-1 1-.5 0-1-.5-1-1 0-.6.5-1 1-1 .6 0 1 .4 1 1zm546 1.5c0 .8-.7 1.5-1.5 1.5s-1.5-.7-1.5-1.5.7-1.5 1.5-1.5 1.5.7 1.5 1.5zm-530.2.7c-.6 1.8-2.8 2.1-2.8.4 0-.9.7-1.6 1.6-1.6s1.4.5 1.2 1.2zm448.7 1.8c-.5.8-1.1.8-1.7.2s-.7-1.6-.3-2.2c.5-.8 1.1-.8 1.7-.2s.7 1.6.3 2.2zm-199 1c-.5.8-1.1.8-1.7.2s-.7-1.6-.3-2.2c.5-.8 1.1-.8 1.7-.2s.7 1.6.3 2.2zm-256.5-1.1c0 .5-.7 1.1-1.5 1.5-.9.3-1.5 0-1.5-.9 0-.8.7-1.5 1.5-1.5s1.5.4 1.5.9zm238-.5c0 .3-.4.8-1 1.1-.5.3-1 .1-1-.4 0-.6.5-1.1 1-1.1.6 0 1 .2 1 .4zm-177 3.6c0 .5-.4 1-1 1-.5 0-1-.5-1-1 0-.6.5-1 1-1 .6 0 1 .4 1 1zm504.2 1.5c0 .5-.5 1.1-1.1 1.3s-1.1-.4-1.1-1.3.5-1.5 1.1-1.3 1.1.8 1.1 1.3zm-378.2.5c0 .5-.5 1-1.1 1-.5 0-.7-.5-.4-1 .3-.6.8-1 1.1-1 .2 0 .4.4.4 1zm470.5 3c.3.5-.1 1-.9 1-.9 0-1.6-.5-1.6-1 0-.6.4-1 .9-1 .6 0 1.3.4 1.6 1zm-211.5 1c0 .5-.4 1-1 1-.5 0-1-.5-1-1 0-.6.5-1 1-1 .6 0 1 .4 1 1zm72.5 2c-.5.8-1.1.8-1.7.2s-.7-1.6-.3-2.2c.5-.8 1.1-.8 1.7-.2s.7 1.6.3 2.2zm-318-1c0 .1.9.3 2 .5 14.4 2.4 39.6 13 52.9 22.3 9.1 6.3 18.2 14.8 24.3 22.8 3.2 4.1 6.1 7.4 6.5 7.4s.8.5.8 1.1c0 .8 9.2 17.2 10.4 18.6.1.1 16.4-5.2 36.2-11.8 43.3-14.5 56.2-18 65.3-17.8l6.6.1 102.5 51.3 102.5 51.2 4.2 6.2c2.3 3.3 4.7 7.8 5.4 9.8 1.6 4.8 1.9 26.3.4 26.3-.5 0-1.9 1.9-2.9 4.2-4.2 9.1-11.3 14.4-23.2 17.4-6.9 1.7-7.4 1.7-13.8 0-3.6-1-9.8-3.4-13.7-5.2-7.9-3.8-10.5-4.2-11.3-1.7-.3 1-2.6 8.8-5.2 17.3-2.5 8.5-6.1 20.9-7.9 27.5-6.6 23.5-8.8 31.3-15.6 54.5-3.8 12.9-7.2 24.4-7.5 25.4-.5 1.4-.2 1.8.9 1.3.8-.3 2.4.4 3.7 1.8 1.8 1.9 2 2.7 1.1 4.4-1 1.7-.9 2 .4 1.5.8-.4 1.5-.1 1.5.5 0 1.1-4.9.9-8.2-.4-1.3-.5-1.9.2-2.9 3.4-.7 2.3-1.8 4.1-2.4 4.1-.7 0-33.7-16.2-73.3-35.9-39.6-19.8-72.3-35.7-72.6-35.4-.3.4-.6.2-.6-.3s-13.9-7.9-31-16.4c-17.5-8.7-31-16.1-31-16.8 0-1.3 6.5-10.2 10.7-14.7 4.1-4.5 12.3-15.4 12.3-16.4 0-.6.6-1.4 1.4-1.7 1.8-.7 7.8-9.2 6.9-9.7-5.5-3.1-38.3-19.7-39-19.7-.5 0-1.5 1.2-2.2 2.7-5.1 11.4-24.3 34.1-37.2 43.9-6.5 5-21.5 13.4-28.4 15.9-2.7 1-5.7 2.4-6.6 3.2-.9.7-1.8 1.1-2.1.7-.3-.3-3 .2-6.1 1.1-9.7 2.8-18.3 3.8-33.2 3.7-7.2 0-11.3.4-11.7 1.2-.5.7-.8.5-.8-.7 0-1.3-.9-1.7-3.8-1.7-3.5 0-4.1.5-9.2 7.1-3 3.9-7.5 9.7-10 12.8-6.6 8.5-16.9 22.7-21.6 30-4.1 6.2-4.1 6.4-2.3 8.2 2.4 2.4 2.4 3.4-.1 5.9-1.6 1.6-2.4 1.8-4.6 1-1.5-.6-2.8-.9-2.9-.8-1.2 1.6-15.4 24.6-19.9 32.3-3.2 5.5-7.3 12.5-9.1 15.5-6.1 10.3-12.5 23.9-11.9 25.5.4.9.1 1.5-.9 1.5-.9 0-2.5 1.6-3.7 3.5-2.5 4-7.3 8.3-10.9 9.7-4.5 1.6-11.5 1.1-16.2-1.2-6.8-3.5-10.2-7.7-11.8-14.8-1.6-7.2-.3-10.3 21.1-49.7 3.6-6.6 8.8-16.1 11.5-21 4.5-8.1 7.2-12.7 18.9-32.8 1.9-3.1 4.9-8.3 6.8-11.5 4.8-8.2 11.1-18.5 17.1-27.7 7.8-12 8-12.4 6.1-14.3-1-1.1-1.6-1.2-1.6-.4 0 .7-.4 1.2-1 1.2-.5 0-1-.9-1-2s-1.1-2.7-2.5-3.6c-4.4-2.9-19.7-19.2-23.9-25.6-10.6-15.8-16.6-29.8-20.3-47-3.1-14.4-2.1-48.8 1.7-58.3.4-1.1 1.8-4.9 3-8.5 2.8-8.1 8.1-18.8 12.8-26 6.5-9.9 20.7-25.2 26.8-29 1.3-.8 2.7-2.3 3-3.3s1.1-1.6 1.7-1.4 4.4-1.8 8.5-4.4c14.3-9.4 40.2-17.4 57.2-17.8 4.6-.1 8.5-.3 8.6-.4.2-.2 15.9.1 15.9.3zm-224 .6c2.8 1.1 4.7 5.9 3.4 8.7-3.1 6.9-12.9 4.5-12.9-3.2 0-2 4.3-6.1 6.6-6.1.7 0 2 .3 2.9.6zm248.5 1.9c0 .8-.7 1.5-1.5 1.5s-1.5-.7-1.5-1.5.7-1.5 1.5-1.5 1.5.7 1.5 1.5zm-179 .5c0 .5-.4 1-1 1-.5 0-1-.5-1-1 0-.6.5-1 1-1 .6 0 1 .4 1 1zm225-.4c0 .3-.7 1.2-1.5 2.1-2 1.9-3.2 1-1.4-1.1 1.4-1.5 2.9-2.1 2.9-1zm9.4 2.6c1.5 2.4-1 5.1-3.5 3.7-2.2-1.1-2.4-3-.7-4.7 1.5-1.5 2.8-1.1 4.2 1zm204.6-1.8c0 .3-.4.8-1 1.1-.5.3-1 .1-1-.4 0-.6.5-1.1 1-1.1.6 0 1 .2 1 .4zm-187.2 4.5c.8.4 1.2 1.9 1 3.2-.4 3-5.1 3.5-5.6.6-.8-3.9 1.5-5.8 4.6-3.8zm-292.1 3.7c-.9.9-2.8-.6-2.1-1.8.4-.6 1-.6 1.7.1.6.6.8 1.3.4 1.7zm459.3-1.6c0 .5-.5 1-1.1 1-.5 0-.7-.5-.4-1 .3-.6.8-1 1.1-1 .2 0 .4.4.4 1zm-410 2.5c0 1.2-2.1 2.5-4.1 2.5-1.5 0-1-2.2.8-3.6 2-1.4 3.3-1 3.3 1.1zm228-.4c0 .5-.7.9-1.5.9-1.5 0-2-1.2-.9-2.3.8-.8 2.4.1 2.4 1.4zm286.2 3.1c-.9.9-1.5.9-2.3.1-.7-.7-.9-2-.5-2.9.6-1.6.8-1.6 2.3-.1 1.3 1.3 1.5 1.9.5 2.9zm-171.2-.2c0 .5-.9 1-2 1s-2-.5-2-1c0-.6.9-1 2-1s2 .4 2 1zm-381.6 2.1c-.3.5-1 .7-1.5.3-.5-.3-.7-1-.3-1.5.3-.5 1-.7 1.5-.3.5.3.7 1 .3 1.5zm60.7-.8c-.1 1.2-1.5.9-1.9-.4-.3-.6.1-1 .8-.8.6.3 1.1.8 1.1 1.2zm282.9-.9c0 .3-.4.8-1 1.1-.5.3-1 .1-1-.4 0-.6.5-1.1 1-1.1.6 0 1 .2 1 .4zm-381 4.1c0 .8-.7 1.5-1.5 1.5s-1.5-.7-1.5-1.5.7-1.5 1.5-1.5 1.5.7 1.5 1.5zm309.9 1.8c1.3 1.6.5 2.7-2.1 2.7-1.8 0-2.5-2-1.1-3.3 1-1 1.9-.8 3.2.6zm26.1-.3c0 .5-.4 1-1 1-.5 0-1-.5-1-1 0-.6.5-1 1-1 .6 0 1 .4 1 1zm288.8 2.2c.3 2.4 0 2.8-2.1 2.8-2.7 0-4-2-3-4.6s4.8-1.3 5.1 1.8zm-610.8-1.2c0 .5-.4 1-1 1-.5 0-1-.5-1-1 0-.6.5-1 1-1 .6 0 1 .4 1 1zm406 0c0 .5-.4 1-1 1-.5 0-1-.5-1-1 0-.6.5-1 1-1 .6 0 1 .4 1 1zm-45.7 1.5c.1.5-.6 1.1-1.5 1.3-1.1.2-1.8-.3-1.8-1.3 0-1.7 3-1.8 3.3 0zm-309.3 2.6c0 .5-.7.9-1.5.9-1.5 0-2-1.2-.9-2.3.8-.8 2.4.1 2.4 1.4zm-8.6 2c-.3.5-1 .7-1.5.3-.5-.3-.7-1-.3-1.5.3-.5 1-.7 1.5-.3.5.3.7 1 .3 1.5zm51.6 0c0 1.5-2.2 2.1-3.1.8-1.4-2.2-1.1-2.8 1.1-2.2 1.1.3 2 .9 2 1.4zm442.1.2c-1.3 1.3-2.6.3-1.6-1.2.3-.6 1.1-.8 1.7-.5.6.4.6 1-.1 1.7zm-489.1-.3c0 .5-.2 1-.4 1-.3 0-.8-.5-1.1-1-.3-.6-.1-1 .4-1 .6 0 1.1.4 1.1 1zm514-.6c0 .3-.4.8-1 1.1-.5.3-1 .1-1-.4 0-.6.5-1.1 1-1.1.6 0 1 .2 1 .4zm-172 3.1c0 .8-.4 1.5-.9 1.5-1.3 0-2.2-1.6-1.4-2.4 1.1-1.1 2.3-.6 2.3.9zm-360 .5c0 .5-.5 1-1.1 1-.5 0-.7-.5-.4-1 .3-.6.8-1 1.1-1 .2 0 .4.4.4 1zm319.5 0c.3.5.1 1-.4 1-.6 0-1.1-.5-1.1-1 0-.6.2-1 .4-1 .3 0 .8.4 1.1 1zm244.5 2.6c0 .8-.7 1.4-1.5 1.4-1.5 0-2.1-2.1-.9-3.3 1-.9 2.4.2 2.4 1.9zm-168-1.2c0 .3-.4.8-1 1.1-.5.3-1 .1-1-.4 0-.6.5-1.1 1-1.1.6 0 1 .2 1 .4zm-39 1.6c0 .5-.5 1-1.1 1-.5 0-.7-.5-.4-1 .3-.6.8-1 1.1-1 .2 0 .4.4.4 1zm-304 .4c0 .3-.4.8-1 1.1-.5.3-1 .1-1-.4 0-.6.5-1.1 1-1.1.6 0 1 .2 1 .4zm-127 1.6c0 .5-.4 1-1 1-.5 0-1-.5-1-1 0-.6.5-1 1-1 .6 0 1 .4 1 1zm44.6 1c.8 0 1.4.7 1.4 1.5s-.7 1.5-1.5 1.5-1.5-.4-1.5-.9-.2-1.5-.3-2.3c-.2-.7-.2-1 0-.6.3.5 1.1.8 1.9.8zm326.9 3c0 1.6-.6 2.6-1.8 2.8-1.9.4-3.2-2-2.3-4.4.9-2.5 4.1-1.3 4.1 1.6zm-11.5-1c0 .5-.2 1-.4 1-.3 0-.8-.5-1.1-1-.3-.6-.1-1 .4-1 .6 0 1.1.4 1.1 1zm-282 2c0 .5-.7 1-1.6 1-.8 0-1.2-.5-.9-1 .3-.6 1-1 1.6-1 .5 0 .9.4.9 1zm573 1c0 .5-.4 1-1 1-.5 0-1-.5-1-1 0-.6.5-1 1-1 .6 0 1 .4 1 1zm12.4 4.1c-.3.5-1.4.9-2.5.9-2.1 0-2.6-2.6-.6-3.3 1.5-.5 3.9 1.2 3.1 2.4zm-597.4.5c0 .8-.7 1.4-1.5 1.4-1.5 0-2.1-2.1-.9-3.3 1-.9 2.4.2 2.4 1.9zm59.8 1c1.1 2 .4 6-1.3 7.4-1.6 1.3-5.9-1.1-7.6-4.1-1.5-2.8 3.3-7.4 6.1-5.9 1 .6 2.3 1.7 2.8 2.6zm487.7.4c0 2.9-3.2 4.1-4.1 1.6-.9-2.4.4-4.8 2.3-4.4 1.2.2 1.8 1.2 1.8 2.8zm-254.5-.5c0 .8-.7 1.5-1.5 1.5s-1.5-.7-1.5-1.5.7-1.5 1.5-1.5 1.5.7 1.5 1.5zm15.5.5c.3.5.1 1-.4 1-.6 0-1.1-.5-1.1-1 0-.6.2-1 .4-1 .3 0 .8.4 1.1 1zm115.5.4c0 1.1-1.9 1.5-2.5.6-.3-.5.1-1 .9-1 .9 0 1.6.2 1.6.4zm155 1.1c0 .8-.7 1.5-1.5 1.5s-1.5-.7-1.5-1.5.7-1.5 1.5-1.5 1.5.7 1.5 1.5zm-563 2.6c0 .5-.7.9-1.5.9-1.5 0-2-1.2-.9-2.3.8-.8 2.4.1 2.4 1.4zm474-.7c0 .3-.4.8-1 1.1-.5.3-1 .1-1-.4 0-.6.5-1.1 1-1.1.6 0 1 .2 1 .4zm-427 1.6c0 .5-.2 1-.4 1-.3 0-.8-.5-1.1-1-.3-.6-.1-1 .4-1 .6 0 1.1.4 1.1 1zm258.8 1.1c-.2.6-.8 1-1.3 1s-1.1-.4-1.3-1 .4-1.1 1.3-1.1 1.5.5 1.3 1.1zm-337.8 2.5c0 .8-.9 1.4-2 1.4-2.2 0-2.6-1-.8-2.8 1.3-1.3 2.8-.7 2.8 1.4zm535-.1c0 .8-.7 1.5-1.5 1.5s-1.5-.7-1.5-1.5.7-1.5 1.5-1.5 1.5.7 1.5 1.5zm146.4.6c-.3.5-1 .7-1.5.3-.5-.3-.7-1-.3-1.5.3-.5 1-.7 1.5-.3.5.3.7 1 .3 1.5zm-744.5 4.9c.4 0 1.2 1 1.8 2.3 1.2 2.6-.6 7-3.3 8.1-2.4.9-6.7-1.6-7.8-4.5-.7-2.2-.4-3.2 2-6.2 2.8-3.6 2.9-3.6 4.7-1.7 1 1.1 2.1 2 2.6 2zm636.6-3.1c.7 1.2-1.2 2.4-2.5 1.6-1.1-.7-.4-2.5 1-2.5.5 0 1.1.4 1.5.9zm8.5.1c0 .5-.5 1-1.1 1-.5 0-.7-.5-.4-1 .3-.6.8-1 1.1-1 .2 0 .4.4.4 1zm-616 1.5c0 .8-.4 1.5-.9 1.5-1.3 0-2.2-1.6-1.4-2.4 1.1-1.1 2.3-.6 2.3.9zm90 2c0 1.6-.6 2.5-1.5 2.5-1.6 0-1.9-.9-.9-3.4.9-2.5 2.4-1.9 2.4.9zm20-.5c0 .5-.4 1-1 1-.5 0-1-.5-1-1 0-.6.5-1 1-1 .6 0 1 .4 1 1zm522.4 1.1c-.3.5-1 .7-1.5.3-.5-.3-.7-1-.3-1.5.3-.5 1-.7 1.5-.3.5.3.7 1 .3 1.5zm-678.6 1.5c.4 2.5-2.2 4.9-4.3 4-1.5-.5-2.1-4.7-.8-6 1.4-1.4 4.8-.1 5.1 2zm386.2-.6c0 .5-.4 1-1 1-.5 0-1-.5-1-1 0-.6.5-1 1-1 .6 0 1 .4 1 1zm-323 1c0 .5-.5 1-1.1 1-.5 0-.7-.5-.4-1 .3-.6.8-1 1.1-1 .2 0 .4.4.4 1zm13 0c0 .5-.5 1-1.1 1-.5 0-.7-.5-.4-1 .3-.6.8-1 1.1-1 .2 0 .4.4.4 1zm552 7.5c0 .8-.7 1.5-1.5 1.5s-1.5-.7-1.5-1.5.7-1.5 1.5-1.5 1.5.7 1.5 1.5zm-636.2 1.3c.2.7-.3 1.2-1.2 1.2s-1.6-.7-1.6-1.6c0-1.7 2.2-1.4 2.8.4zm154.2-.8c0 .5-.4 1-.9 1s-.7.9-.4 2c.4 1.4 0 2-1.1 2-1.8 0-1.9-.4-1-3.8.6-2.1 3.4-3.2 3.4-1.2zm-29 1c0 .5-.4 1-1 1-.5 0-1-.5-1-1 0-.6.5-1 1-1 .6 0 1 .4 1 1zm-133 1.5c0 .8-.7 1.5-1.5 1.5s-1.5-.7-1.5-1.5.7-1.5 1.5-1.5 1.5.7 1.5 1.5zm63.5-.5c.3.5.1 1-.4 1-.6 0-1.1-.5-1.1-1 0-.6.2-1 .4-1 .3 0 .8.4 1.1 1zm12.9 3.3c1.8 2.7 1.2 5.8-1.3 7.4-2.6 1.6-5.7.6-7-2.3-2.6-5.7 5-10.3 8.3-5.1zm-26.4 1.2c0 .8-.7 1.5-1.5 1.5-1.6 0-2-1.2-.8-2.3 1.1-1.2 2.3-.8 2.3.8zm84.4 1.8c1.5 2.4-1.7 5.6-3.7 3.8-1.5-1.2-2.8-5.7-2-6.5s4.7 1 5.7 2.7zm11.6-1.3c2.4 2.4 2.5 4.3.4 6.4-2.1 2.2-4.3 2-7.1-.6-2.2-2.1-3-5.7-1.6-7.1s6.4-.6 8.3 1.3zm-81.6 2.1c-.3.5-1 .7-1.5.3-.5-.3-.7-1-.3-1.5.3-.5 1-.7 1.5-.3.5.3.7 1 .3 1.5zm58.6-1.1c0 .5-.4 1-1 1-.5 0-1-.5-1-1 0-.6.5-1 1-1 .6 0 1 .4 1 1zm500-.6c0 .3-.4.8-1 1.1-.5.3-1 .1-1-.4 0-.6.5-1.1 1-1.1.6 0 1 .2 1 .4zm-596 4.7c0 .5-.7.9-1.5.9-1.5 0-2-1.2-.9-2.3.8-.8 2.4.1 2.4 1.4zm13.7 3.5c-.3.3-1.2.4-1.9.1-.8-.3-.5-.6.6-.6 1.1-.1 1.7.2 1.3.5zm-46.7.8c0 .3-.4.8-1 1.1-.5.3-1 .1-1-.4 0-.6.5-1.1 1-1.1.6 0 1 .2 1 .4zm124.4 4.7c-.3.5-1 .7-1.5.3-.5-.3-.7-1-.3-1.5.3-.5 1-.7 1.5-.3.5.3.7 1 .3 1.5zm-63.4 1c0 1.2-3.7 1.2-4.4 0-.3-.4-.3-1.1 0-1.4.8-.7 4.4.4 4.4 1.4zm727.4 0c-.3.5-1 .7-1.5.3-.5-.3-.7-1-.3-1.5.3-.5 1-.7 1.5-.3.5.3.7 1 .3 1.5zm37 0c-.3.5-1 .7-1.5.3-.5-.3-.7-1-.3-1.5.3-.5 1-.7 1.5-.3.5.3.7 1 .3 1.5zm-672.4 3.9c0 .5-.4 1-1 1-.5 0-1-.5-1-1 0-.6.5-1 1-1 .6 0 1 .4 1 1zm-8 5.5c0 1.9-2 2.9-3.2 1.7-.8-.8-.7-1.6.2-2.6 1.4-1.7 3-1.2 3 .9zm-78.3 0c1.6 1.2 2.2 1.2 2.6.2.3-.6.4.4.2 2.3-.7 6-5.9 8.4-9.2 4.2-1.8-2.2-1.6-3.9.7-6.2 2.4-2.4 2.9-2.4 5.7-.5zm629.7.6c-.3.5-1 .7-1.5.3-.5-.3-.7-1-.3-1.5.3-.5 1-.7 1.5-.3.5.3.7 1 .3 1.5zm-596.4-.1c0 .5-.5 1-1.1 1-.5 0-.7-.5-.4-1 .3-.6.8-1 1.1-1 .2 0 .4.4.4 1zm684 .6c0 1.7-2.2 1.4-2.8-.4-.2-.7.3-1.2 1.2-1.2s1.6.7 1.6 1.6zm-704 .4c0 .5-.4 1-1 1-.5 0-1-.5-1-1 0-.6.5-1 1-1 .6 0 1 .4 1 1zm-42.6 7.1c-.3.5-1 .7-1.5.3-.5-.3-.7-1-.3-1.5.3-.5 1-.7 1.5-.3.5.3.7 1 .3 1.5zm106.6-1.2c0 .6-.4 1.3-1 1.6-.5.3-1-.1-1-.9 0-.9.5-1.6 1-1.6.6 0 1 .4 1 .9zm-133.3 2.7c-.9.9-2.8-.6-2.1-1.8.4-.6 1-.6 1.7.1.6.6.8 1.3.4 1.7zm12.2-.2c.4 2.6-2.7 5-4.6 3.5-.7-.6-1.3-2.2-1.3-3.6 0-2.1.4-2.4 2.7-2.1 1.8.2 2.9 1 3.2 2.2zm106.9.5c-.5 2.4-3.8 2.7-3.8.3 0-1 .3-2.1.6-2.5 1.1-1.1 3.5.5 3.2 2.2zm-20.8 1.1c0 .5-.4 1-1 1-.5 0-1-.5-1-1 0-.6.5-1 1-1 .6 0 1 .4 1 1zm596.4 1.1c-.3.5-1 .7-1.5.3-.5-.3-.7-1-.3-1.5.3-.5 1-.7 1.5-.3.5.3.7 1 .3 1.5zm-585.4 2.4c0 .8-.7 1.5-1.5 1.5s-1.5-.7-1.5-1.5.7-1.5 1.5-1.5 1.5.7 1.5 1.5zm16 2.6c0 .5-.4.9-1 .9-.5 0-1-.7-1-1.6 0-.8.5-1.2 1-.9.6.3 1 1 1 1.6zm-155-.1c0 .5-.5 1-1.1 1-.5 0-.7-.5-.4-1 .3-.6.8-1 1.1-1 .2 0 .4.4.4 1zm20 .4c0 .3-.4.8-1 1.1-.5.3-1 .1-1-.4 0-.6.5-1.1 1-1.1.6 0 1 .2 1 .4zm138.7 2.2c-.9.9-2.8-.6-2.1-1.8.4-.6 1-.6 1.7.1.6.6.8 1.3.4 1.7zm21.1-.9c-.4 2.2-2.2 2-2.6-.1-.2-1 .3-1.6 1.3-1.6s1.5.7 1.3 1.7zm-79.8 2.8c0 .8-.7 1.5-1.5 1.5s-1.5-.7-1.5-1.5.7-1.5 1.5-1.5 1.5.7 1.5 1.5zm67.8-.4c-.2.6-.8 1-1.3 1s-1.1-.4-1.3-1 .4-1.1 1.3-1.1 1.5.5 1.3 1.1zm-20.8.9c0 .5-.4 1-1 1-.5 0-1-.5-1-1 0-.6.5-1 1-1 .6 0 1 .4 1 1zm-71.3 3.6c-.9.9-2.8-.6-2.1-1.8.4-.6 1-.6 1.7.1.6.6.8 1.3.4 1.7zm660.3-1.1c0 .8-.7 1.5-1.5 1.5s-1.5-.7-1.5-1.5.7-1.5 1.5-1.5 1.5.7 1.5 1.5zm-689 1.5c0 .5-.4 1-1 1-.5 0-1-.5-1-1 0-.6.5-1 1-1 .6 0 1 .4 1 1zm-40 1.4c0 .3-.4.8-1 1.1-.5.3-1 .1-1-.4 0-.6.5-1.1 1-1.1.6 0 1 .2 1 .4zm121.2 1.1c0 .5-.5 1.1-1.1 1.3s-1.1-.4-1.1-1.3.5-1.5 1.1-1.3 1.1.8 1.1 1.3zm-127.8 4.6c-.3.5-1 .7-1.5.3-.5-.3-.7-1-.3-1.5.3-.5 1-.7 1.5-.3.5.3.7 1 .3 1.5zm94.6-.1c0 .5-.4 1-1 1-.5 0-1-.5-1-1 0-.6.5-1 1-1 .6 0 1 .4 1 1zm636 1c0 .5-.4 1-1 1-.5 0-1-.5-1-1 0-.6.5-1 1-1 .6 0 1 .4 1 1zm-640 7.5c0 .8-.7 1.5-1.5 1.5s-1.5-.7-1.5-1.5.7-1.5 1.5-1.5 1.5.7 1.5 1.5zm-16.6 1.6c-.3.5-1 .7-1.5.3-.5-.3-.7-1-.3-1.5.3-.5 1-.7 1.5-.3.5.3.7 1 .3 1.5zm-46.4-.1c0 .5-.2 1-.4 1-.3 0-.8-.5-1.1-1-.3-.6-.1-1 .4-1 .6 0 1.1.4 1.1 1zm71.4 1.1c-.3.5-1 .7-1.5.3-.5-.3-.7-1-.3-1.5.3-.5 1-.7 1.5-.3.5.3.7 1 .3 1.5zm676 0c-.3.5-1 .7-1.5.3-.5-.3-.7-1-.3-1.5.3-.5 1-.7 1.5-.3.5.3.7 1 .3 1.5zm-682 10c-.3.5-1 .7-1.5.3-.5-.3-.7-1-.3-1.5.3-.5 1-.7 1.5-.3.5.3.7 1 .3 1.5zm-92.9 3.4c2.4 2.4 2.5 2.5.9 5.9-1.6 3.2-1.9 3.3-4.8 2.5s-5.6-3.3-5.6-5.1c0-1.3 4.7-5.8 6-5.8.6 0 2.2 1.1 3.5 2.5zm163.2.1c-.9.9-2.8-.6-2.1-1.8.4-.6 1-.6 1.7.1.6.6.8 1.3.4 1.7zm600-1c-.3.3-1.2.4-1.9.1-.8-.3-.5-.6.6-.6 1.1-.1 1.7.2 1.3.5zm-724.7 1.9c0 .8-.7 1.5-1.5 1.5s-1.5-.7-1.5-1.5.7-1.5 1.5-1.5 1.5.7 1.5 1.5zm144.4.6c-.3.5-1 .7-1.5.3-.5-.3-.7-1-.3-1.5.3-.5 1-.7 1.5-.3.5.3.7 1 .3 1.5zm-116.7 7.5c.8 2.1-1.3 4.2-2.8 2.7-1.3-1.3-.5-4.3 1.1-4.3.6 0 1.3.7 1.7 1.6zm117.1 1.3c.8.4 1.2 1.9 1 3.2-.4 3-5.1 3.5-5.6.6-.8-3.9 1.5-5.8 4.6-3.8zm-39.8 1.6c0 .8-.7 1.5-1.5 1.5-1.6 0-2-1.2-.8-2.3 1.1-1.2 2.3-.8 2.3.8zm-58.5.4c.3.5.1 1.2-.5 1.6-.5.3-1-.1-1-.9 0-1.8.6-2.1 1.5-.7zm-114.5 1.6c0 .8-.4 1.5-1 1.5-.5 0-1-.7-1-1.5s.5-1.5 1-1.5c.6 0 1 .7 1 1.5zm160.4.6c-.3.5-1 .7-1.5.3-.5-.3-.7-1-.3-1.5.3-.5 1-.7 1.5-.3.5.3.7 1 .3 1.5zm42.5 6.3c.8 1 .8 1.6-.2 2.4-1.7 1.4-4.2-.2-3.4-2.2s2.1-2 3.6-.2zm251.1.1c0 .8-.7 1.5-1.5 1.5s-1.5-.7-1.5-1.5.7-1.5 1.5-1.5 1.5.7 1.5 1.5zm-321.3 3.7c-.3.8-.6.5-.6-.6-.1-1.1.2-1.7.5-1.3.3.3.4 1.2.1 1.9zm-15.7-.2c0 .5-.4 1-1 1-.5 0-1-.5-1-1 0-.6.5-1 1-1 .6 0 1 .4 1 1zm31 .4c0 .3-.4.8-1 1.1-.5.3-1 .1-1-.4 0-.6.5-1.1 1-1.1.6 0 1 .2 1 .4zm658 2.6c0 1.1-.6 2-1.4 2-1.8 0-2.9-1.6-2.1-3 1.1-1.8 3.5-1.1 3.5 1zm98-.5c0 .8-.7 1.5-1.5 1.5s-1.5-.7-1.5-1.5.7-1.5 1.5-1.5 1.5.7 1.5 1.5zm-746.5.5c.3.5.1 1-.4 1-.6 0-1.1-.5-1.1-1 0-.6.2-1 .4-1 .3 0 .8.4 1.1 1zm45.3 1.1c-.2.6-.8 1-1.3 1s-1.1-.4-1.3-1 .4-1.1 1.3-1.1 1.5.5 1.3 1.1zm25.2.9c0 .5-.4 1-1 1-.5 0-1-.5-1-1 0-.6.5-1 1-1 .6 0 1 .4 1 1zm-107 4.5c0 .8-.7 1.5-1.5 1.5s-1.5-.7-1.5-1.5.7-1.5 1.5-1.5 1.5.7 1.5 1.5zm42.5 1.4c.7 1.2-1.2 2.4-2.5 1.6-1.1-.7-.4-2.5 1-2.5.5 0 1.1.4 1.5.9zm44.5.1c0 .5-.4 1-1 1-.5 0-1-.5-1-1 0-.6.5-1 1-1 .6 0 1 .4 1 1zm-139 3c0 .5-.4 1-1 1-.5 0-1-.5-1-1 0-.6.5-1 1-1 .6 0 1 .4 1 1zm107.5 0c.3.5.1 1-.4 1-.6 0-1.1-.5-1.1-1 0-.6.2-1 .4-1 .3 0 .8.4 1.1 1zm287.3.2c-.6 1.8-2.8 2.1-2.8.4 0-.9.7-1.6 1.6-1.6s1.4.5 1.2 1.2zm-21.8 2.4c0 .8-.4 1.2-1 .9-.5-.3-1-1-1-1.6 0-.5.5-.9 1-.9.6 0 1 .7 1 1.6zm324 .4c0 .5-.4 1-1 1-.5 0-1-.5-1-1 0-.6.5-1 1-1 .6 0 1 .4 1 1zm-313 3.5c0 .8-.7 1.5-1.5 1.5s-1.5-.7-1.5-1.5.7-1.5 1.5-1.5 1.5.7 1.5 1.5zm-454.6 2.6c-.3.5-1 .7-1.5.3-.5-.3-.7-1-.3-1.5.3-.5 1-.7 1.5-.3.5.3.7 1 .3 1.5zm31 3.1c.9 1.2 1.6 2.6 1.6 3 0 1.1-3.8 4.8-5 4.8-1.5 0-5-3.8-5-5.4 0-2 2.8-4.6 5-4.6 1 0 2.6 1 3.4 2.2zm215.6.3c2.6 3.1-1.8 7.1-4.7 4.3-1.2-1.2-1.3-2-.4-3.7 1.4-2.5 3.4-2.7 5.1-.6zm-181.6 2.6c-.3.5-1 .7-1.5.3-.5-.3-.7-1-.3-1.5.3-.5 1-.7 1.5-.3.5.3.7 1 .3 1.5zm80 2c-.3.5-1 .7-1.5.3-.5-.3-.7-1-.3-1.5.3-.5 1-.7 1.5-.3.5.3.7 1 .3 1.5zm-48.4 5.4c-1.9 2.3-4.4 0-2.9-2.7 1-1.8 1.2-1.9 2.7-.5 1.3 1.3 1.3 1.9.2 3.2zm31.2-3c0 .5-.5 1.1-1.1 1.3s-1.1-.4-1.1-1.3.5-1.5 1.1-1.3 1.1.8 1.1 1.3zm627.8-.5c0 .5-.4 1-1 1-.5 0-1-.5-1-1 0-.6.5-1 1-1 .6 0 1 .4 1 1zm-17 1.4c0 .3-.4.8-1 1.1-.5.3-1 .1-1-.4 0-.6.5-1.1 1-1.1.6 0 1 .2 1 .4zm-564 3.1c0 .8-.7 1.5-1.5 1.5s-1.5-.7-1.5-1.5.7-1.5 1.5-1.5 1.5.7 1.5 1.5zm-73 1.5c0 .5-.4 1-1 1-.5 0-1-.5-1-1 0-.6.5-1 1-1 .6 0 1 .4 1 1zm9.2 1.4c1.9 2.8-.5 7.6-3.7 7.6-1.4 0-5.5-3.8-5.5-5 0-.3.9-1.6 2.1-2.9 2.1-2.2 5.5-2.1 7.1.3zm82-.9c0 .5-.5 1.1-1.1 1.3s-1.1-.4-1.1-1.3.5-1.5 1.1-1.3 1.1.8 1.1 1.3zm-29.4 2.8c.6 2.8-1.6 4.9-3.9 3.6-2.2-1.1-2.4-3-.7-4.7s4.2-1.1 4.6 1.1zm-112.8.2c0 .8-.7 1.5-1.5 1.5s-1.5-.7-1.5-1.5.7-1.5 1.5-1.5 1.5.7 1.5 1.5zm101-.5c0 .5-.4 1-1 1-.5 0-1-.5-1-1 0-.6.5-1 1-1 .6 0 1 .4 1 1zm108-.6c0 .3-.4.8-1 1.1-.5.3-1 .1-1-.4 0-.6.5-1.1 1-1.1.6 0 1 .2 1 .4zm157 5c0 .3-.4.8-1 1.1-.5.3-1 .1-1-.4 0-.6.5-1.1 1-1.1.6 0 1 .2 1 .4zm-203 2.6c0 .5-.4 1-1 1-.5 0-1-.5-1-1 0-.6.5-1 1-1 .6 0 1 .4 1 1zm527 0c0 .5-.4 1-1 1-.5 0-1-.5-1-1 0-.6.5-1 1-1 .6 0 1 .4 1 1zm80.6 1.1c.9 1.6-1.2 3.3-3.1 2.5-1.4-.5-1.5-.9-.5-2.1 1.5-1.8 2.6-1.9 3.6-.4zm73.4.9c0 .5-.4 1-1 1-.5 0-1-.5-1-1 0-.6.5-1 1-1 .6 0 1 .4 1 1zm-451 1c0 .5-.4 1-1 1-.5 0-1-.5-1-1 0-.6.5-1 1-1 .6 0 1 .4 1 1zm325.5 2.1c0 1.5-.7 2.5-1.8 2.7-2.2.4-3.3-2.4-1.7-4.3 1.8-2.1 3.5-1.3 3.5 1.6zm-718.1 1c-.3.5-1 .7-1.5.3-.5-.3-.7-1-.3-1.5.3-.5 1-.7 1.5-.3.5.3.7 1 .3 1.5zm358-.6c.9 2.5-.5 4.6-2.8 4.3-1.5-.2-2.2-1.1-2.4-3.1-.3-2.3 0-2.7 2.1-2.7 1.4 0 2.7.7 3.1 1.5zm-211.4 3.5c0 .5-.4 1-1 1-.5 0-1-.5-1-1 0-.6.5-1 1-1 .6 0 1 .4 1 1zm236 2.5c0 .8-.7 1.5-1.5 1.5s-1.5-.7-1.5-1.5.7-1.5 1.5-1.5 1.5.7 1.5 1.5zm-25.5 1.8c0 2.6-2 2.5-2.3-.2-.3-1.6.1-2.2 1-1.9.7.3 1.3 1.2 1.3 2.1zm326.5.3c0 1.6-1.6 1.9-2.5.4-.8-1.3.4-3.2 1.6-2.5.5.4.9 1.3.9 2.1zm152.4.5c-.3.5-1 .7-1.5.3-.5-.3-.7-1-.3-1.5.3-.5 1-.7 1.5-.3.5.3.7 1 .3 1.5zm-683 1c-.3.5-1 .7-1.5.3-.5-.3-.7-1-.3-1.5.3-.5 1-.7 1.5-.3.5.3.7 1 .3 1.5zm223 0c-.3.5-1 .7-1.5.3-.5-.3-.7-1-.3-1.5.3-.5 1-.7 1.5-.3.5.3.7 1 .3 1.5zm-248.2 1.4c0 .5-.5 1.1-1.1 1.3s-1.1-.4-1.1-1.3.5-1.5 1.1-1.3 1.1.8 1.1 1.3zm602.3-.5c.3.5-.1 1-.9 1-.9 0-1.6-.5-1.6-1 0-.6.4-1 .9-1 .6 0 1.3.4 1.6 1zm-658.5 1c0 .5-.5 1-1.1 1-.5 0-.7-.5-.4-1 .3-.6.8-1 1.1-1 .2 0 .4.4.4 1zm234.4 1.1c-.3.5-1 .7-1.5.3-.5-.3-.7-1-.3-1.5.3-.5 1-.7 1.5-.3.5.3.7 1 .3 1.5zm82.1 4.9c16.4 7.5 33.4 16.6 36.8 19.8 3.8 3.6 3.6 8.4-.4 14.8-5.6 8.6-33.6 50.7-38 56.9-15.9 22.6-18.9 24.3-32.7 18.9-3.7-1.5-17.4-8-30.4-14.5-13.1-6.6-23.8-11.5-23.8-10.9 0 .5-.5 1-1.1 1s-.9-.6-.6-1.3c.3-.8-1.5-2.5-4.6-4.4-7-4.2-9.8-7.4-10.4-12-1.2-9 5.1-19.2 20.3-32.9 4.8-4.4 10.2-9.4 12-11.2 1.8-1.7 3.7-3.2 4.3-3.2.5 0 1.6-.6 2.3-1.3 2.5-2.5 15.3-11.4 23.3-16.3 18.5-11.2 24.7-11.7 43-3.4zm364.9-2.9c-.3.5-1 .7-1.5.3-.5-.3-.7-1-.3-1.5.3-.5 1-.7 1.5-.3.5.3.7 1 .3 1.5zm-600.4.9c0 .5-.4 1-1 1-.5 0-1-.5-1-1 0-.6.5-1 1-1 .6 0 1 .4 1 1zm170.6 1.7c-1 1-1.9-.5-1-1.8.6-1.1.8-1.1 1.2 0 .2.7.1 1.5-.2 1.8zm-216.6 2.3c0 .5-.4 1-1 1-.5 0-1-.5-1-1 0-.6.5-1 1-1 .6 0 1 .4 1 1zm-7.5 1c.3.5.1 1-.4 1-.6 0-1.1-.5-1.1-1 0-.6.2-1 .4-1 .3 0 .8.4 1.1 1zm220.5 4c0 .5-.5 1-1.1 1-.5 0-.7-.5-.4-1 .3-.6.8-1 1.1-1 .2 0 .4.4.4 1zm122 0c0 .5-.4 1-1 1-.5 0-1-.5-1-1 0-.6.5-1 1-1 .6 0 1 .4 1 1zm411 2c0 .5-.4 1-1 1-.5 0-1-.5-1-1 0-.6.5-1 1-1 .6 0 1 .4 1 1zm-691 1.6c0 1.4-.3 1.4-1.5.4-.8-.7-1.5-1.4-1.5-1.6s.7-.4 1.5-.4 1.5.7 1.5 1.6zm-84.8.9c0 .5-.5 1.1-1.1 1.3s-1.1-.4-1.1-1.3.5-1.5 1.1-1.3 1.1.8 1.1 1.3zm653.8 1.1c0 .8-.7 1.4-1.5 1.4-1.5 0-2.1-2.1-.9-3.3 1-.9 2.4.2 2.4 1.9zm-419-.6c0 .5-.2 1-.4 1-.3 0-.8-.5-1.1-1-.3-.6-.1-1 .4-1 .6 0 1.1.4 1.1 1zm-330 2c0 .5-.4 1-1 1-.5 0-1-.5-1-1 0-.6.5-1 1-1 .6 0 1 .4 1 1zm-53.7 4.6c-.3.8-1.2 1.4-1.9 1.4-2 0-3-3-1.3-4 1.7-1.1 4 .7 3.2 2.6zm79.7-2.6c0 .5-.4 1-1 1-.5 0-1-.5-1-1 0-.6.5-1 1-1 .6 0 1 .4 1 1zm134.8 1.7c-1.4 1.7-2.8 1.6-2.8-.1 0-.8.9-1.4 1.9-1.3 1.5.1 1.7.4.9 1.4zm152.2-1.3c0 .3-.4.8-1 1.1-.5.3-1 .1-1-.4 0-.6.5-1.1 1-1.1.6 0 1 .2 1 .4zm-344 1.6c0 .5-.4 1-1 1-.5 0-1-.5-1-1 0-.6.5-1 1-1 .6 0 1 .4 1 1zm510 0c0 .5-.4 1-1 1-.5 0-1-.5-1-1 0-.6.5-1 1-1 .6 0 1 .4 1 1zm261 .5c0 .8-.7 1.5-1.5 1.5s-1.5-.7-1.5-1.5.7-1.5 1.5-1.5 1.5.7 1.5 1.5zm-628 .5c0 .5-.4 1-1 1-.5 0-1-.5-1-1 0-.6.5-1 1-1 .6 0 1 .4 1 1zm11.8 1.6c.4 2.6-2.6 4-4.5 2.1-.8-.7-1.1-2.1-.7-3.1.9-2.4 4.8-1.7 5.2 1zm59.2-1.2c0 .3-.4.8-1 1.1-.5.3-1 .1-1-.4 0-.6.5-1.1 1-1.1.6 0 1 .2 1 .4zm91 .6c0 .5-.4 1-1 1-.5 0-1-.5-1-1 0-.6.5-1 1-1 .6 0 1 .4 1 1zm494 5c0 .5-.4 1-1 1-.5 0-1-.5-1-1 0-.6.5-1 1-1 .6 0 1 .4 1 1zm-593.2 1.1c-.2.6-.8 1-1.3 1s-1.1-.4-1.3-1 .4-1.1 1.3-1.1 1.5.5 1.3 1.1zm19.2-.1c0 .5-.4 1-1 1-.5 0-1-.5-1-1 0-.6.5-1 1-1 .6 0 1 .4 1 1zm-255 1.5c0 .8-.4 1.5-.9 1.5-1.3 0-2.2-1.6-1.4-2.4 1.1-1.1 2.3-.6 2.3.9zm106-1.1c0 .3-.4.8-1 1.1-.5.3-1 .1-1-.4 0-.6.5-1.1 1-1.1.6 0 1 .2 1 .4zm830 .6c0 .5-.5 1-1.1 1-.5 0-.7-.5-.4-1 .3-.6.8-1 1.1-1 .2 0 .4.4.4 1zm24 .5c0 .8-.7 1.5-1.5 1.5s-1.5-.7-1.5-1.5.7-1.5 1.5-1.5 1.5.7 1.5 1.5zm-39.6 1.6c-.3.5-1 .7-1.5.3-.5-.3-.7-1-.3-1.5.3-.5 1-.7 1.5-.3.5.3.7 1 .3 1.5zm-860.4 1.4c0 .8-.4 1.5-1 1.5-.5 0-1-.7-1-1.5s.5-1.5 1-1.5c.6 0 1 .7 1 1.5zm310-.5c0 .5-.2 1-.4 1-.3 0-.8-.5-1.1-1-.3-.6-.1-1 .4-1 .6 0 1.1.4 1.1 1zm405.8.2c1.8 1.8 1.5 4.2-.7 6.2-1.9 1.7-2.1 1.7-4.6-.9-2.6-2.5-2.6-2.7-.9-4.6 2-2.2 4.4-2.5 6.2-.7zm-710.5 3.8c.4 1.7.2 1.8-1.4.9-1.1-.5-1.7-1.4-1.4-2 1-1.5 2.2-1 2.8 1.1zm714.7 0c0 .5-.2 1-.4 1-.3 0-.8-.5-1.1-1-.3-.6-.1-1 .4-1 .6 0 1.1.4 1.1 1zm-561 1.5c0 .8-.4 1.5-1 1.5-.5 0-1-.7-1-1.5s.5-1.5 1-1.5c.6 0 1 .7 1 1.5zm8 .5c0 .5-.4 1-1 1-.5 0-1-.5-1-1 0-.6.5-1 1-1 .6 0 1 .4 1 1zm130 0c0 .5-.4 1-1 1-.5 0-1-.5-1-1 0-.6.5-1 1-1 .6 0 1 .4 1 1zm-6 3.6c0 .9-.5 1.4-1.2 1.2-1.8-.6-2.1-2.8-.4-2.8.9 0 1.6.7 1.6 1.6zm542 1.4c0 .5-.5 1-1.1 1-.5 0-.7-.5-.4-1 .3-.6.8-1 1.1-1 .2 0 .4.4.4 1zm-794 1c0 .5-.4 1-1 1-.5 0-1-.5-1-1 0-.6.5-1 1-1 .6 0 1 .4 1 1zm452.7.6c2.6.8 16.1 7.2 30 14 33.7 16.7 36.2 19.5 35 38.4-.9 13.3-8.5 35.6-19.8 58.3-9.5 18.9-14.6 23.9-24.5 24-4.5 0-10-2.4-50.7-22.1-27.4-13.4-34.6-17.7-37.6-22.5-2.5-4.1-2.8-12.7-.6-18 .8-2 1.2-4.3.9-5.1-.3-.9-.2-1.6.4-1.6s3.2-3.7 5.8-8.3c2.6-4.5 8.4-13.6 12.8-20.2 4.5-6.6 8-12.6 7.8-13.3-.2-.6.3-1.2 1.1-1.2.7 0 2.8-1.9 4.5-4.3 12.7-17.1 22.5-22.2 34.9-18.1zm-435.3 1.5c-.3.5-1 .7-1.5.3-.5-.3-.7-1-.3-1.5.3-.5 1-.7 1.5-.3.5.3.7 1 .3 1.5zm91.4-.3c.2.7-.3 1.2-1.2 1.2s-1.6-.7-1.6-1.6c0-1.7 2.2-1.4 2.8.4zm364.2 4.8c0 .8-.7 1.4-1.5 1.4-1.5 0-2.1-2.1-.9-3.3 1-.9 2.4.2 2.4 1.9zm173 1.4c0 .5-.4 1-1 1-.5 0-1-.5-1-1 0-.6.5-1 1-1 .6 0 1 .4 1 1zm-558 1.4c0 1.1-1.9 1.5-2.5.6-.3-.5.1-1 .9-1 .9 0 1.6.2 1.6.4zm56 2.2c0 .8-.7 1.4-1.5 1.4-1.5 0-2.1-2.1-.9-3.3 1-.9 2.4.2 2.4 1.9zm513 .4c2.2 2.2 1.8 4.5-1.1 6.1-2.2 1.1-5.3-.2-6.3-2.6-.6-1.6 2.5-5.5 4.4-5.5.6 0 1.9.9 3 2zm107.5 1c0 1.8-.6 2.6-2.1 2.8-2.3.3-3.7-1.8-2.7-4.4 1-2.5 4.8-1.3 4.8 1.6zm-788.5-.5c0 .8-.7 1.5-1.5 1.5s-1.5-.7-1.5-1.5.7-1.5 1.5-1.5 1.5.7 1.5 1.5zm32 0c0 .8-.7 1.5-1.5 1.5s-1.5-.7-1.5-1.5.7-1.5 1.5-1.5 1.5.7 1.5 1.5zm127 0c0 .8-.7 1.5-1.5 1.5s-1.5-.7-1.5-1.5.7-1.5 1.5-1.5 1.5.7 1.5 1.5zm-236 3.5c0 .5-.4 1-1 1-.5 0-1-.5-1-1 0-.6.5-1 1-1 .6 0 1 .4 1 1zm53 1.5c0 .8-.4 1.5-.9 1.5-1.3 0-2.2-1.6-1.4-2.4 1.1-1.1 2.3-.6 2.3.9zm798 4c0 .8-.7 1.5-1.5 1.5s-1.5-.7-1.5-1.5.7-1.5 1.5-1.5 1.5.7 1.5 1.5zm-787-.1c0 1.1-1.9 1.5-2.5.6-.3-.5.1-1 .9-1 .9 0 1.6.2 1.6.4zm868 .6c0 .5-.4 1-1 1-.5 0-1-.5-1-1 0-.6.5-1 1-1 .6 0 1 .4 1 1zm-933.8 1.5c0 .5-.5 1.1-1.1 1.3s-1.1-.4-1.1-1.3.5-1.5 1.1-1.3 1.1.8 1.1 1.3zm215.8-.5c0 .5-.4 1-1 1-.5 0-1-.5-1-1 0-.6.5-1 1-1 .6 0 1 .4 1 1zm22.8.7c-.4 2.2-2.2 2-2.6-.1-.2-1 .3-1.6 1.3-1.6s1.5.7 1.3 1.7zm-147.8.3c0 .5-.4 1-1 1-.5 0-1-.5-1-1 0-.6.5-1 1-1 .6 0 1 .4 1 1zm7 0c0 .5-.4 1-1 1-.5 0-1-.5-1-1 0-.6.5-1 1-1 .6 0 1 .4 1 1zm213 1.5c0 .8-.4 1.5-1 1.5-.5 0-1-.7-1-1.5s.5-1.5 1-1.5c.6 0 1 .7 1 1.5zm-241.8 1c0 .5-.5 1.1-1.1 1.3s-1.1-.4-1.1-1.3.5-1.5 1.1-1.3 1.1.8 1.1 1.3zm867.8-.5c0 .5-.8 1-1.7 1-1.5 0-1.6-.2-.3-1 1.9-1.2 2-1.2 2 0zm-934.5 4c0 2-.5 2.5-2.5 2.5s-2.6-.6-2.8-2.8c-.3-2.6-.1-2.8 2.5-2.5 2.2.2 2.8.8 2.8 2.8zm80.5-1.5c0 .8-.7 1.5-1.5 1.5s-1.5-.7-1.5-1.5.7-1.5 1.5-1.5 1.5.7 1.5 1.5zm43.5-.5c.3.5.1 1-.4 1-.6 0-1.1-.5-1.1-1 0-.6.2-1 .4-1 .3 0 .8.4 1.1 1zm669.5 2c0 .5-.4 1-1 1-.5 0-1-.5-1-1 0-.6.5-1 1-1 .6 0 1 .4 1 1zm-80 1.5c0 .8-.7 1.5-1.5 1.5s-1.5-.7-1.5-1.5.7-1.5 1.5-1.5 1.5.7 1.5 1.5zm71.5 2.5c1 1.7-.5 4.9-2.6 5.5-1.3.4-2.8 0-4-1.1-2.4-2.2-2.4-2.9.1-5.4 1.6-1.6 2.5-1.8 4-1 1 .5 2.2 1.5 2.5 2zm92.3-.3c.5 1.7-2.6 2.9-4 1.5-.6-.6-.7-1.5-.3-2.2.9-1.4 3.7-.9 4.3.7zm-70.8.3c0 .5-.4 1-1 1-.5 0-1-.5-1-1 0-.6.5-1 1-1 .6 0 1 .4 1 1zm-699 .4c0 .3-.4.8-1 1.1-.5.3-1 .1-1-.4 0-.6.5-1.1 1-1.1.6 0 1 .2 1 .4zm230.5.6c.3.5.1 1-.4 1-.6 0-1.1-.5-1.1-1 0-.6.2-1 .4-1 .3 0 .8.4 1.1 1zm486.5.5c1.5 1.8.6 4.5-1.3 4.5-.8 0-2-.7-2.7-1.5-1-1.2-1-1.8 0-3 1.6-1.9 2.4-1.9 4 0zm-93 3.5c1.7 1.7 1.8 2.4 1 4.1-1.7 3.2-3.9 3.4-6.6.7l-2.4-2.4 2-2.2c2.6-2.7 3.5-2.7 6-.2zm10 0c0 .5-.4 1-1 1-.5 0-1-.5-1-1 0-.6.5-1 1-1 .6 0 1 .4 1 1zm-642.6 2.1c-.3.5-1 .7-1.5.3-.5-.3-.7-1-.3-1.5.3-.5 1-.7 1.5-.3.5.3.7 1 .3 1.5zm226.6-1.1c0 .5-.7 1-1.6 1-.8 0-1.2-.5-.9-1 .3-.6 1-1 1.6-1 .5 0 .9.4.9 1zm428 0c0 .5-.4 1-1 1-.5 0-1-.5-1-1 0-.6.5-1 1-1 .6 0 1 .4 1 1zm34 1c0 .5-.2 1-.4 1-.3 0-.8-.5-1.1-1-.3-.6-.1-1 .4-1 .6 0 1.1.4 1.1 1zm-472 1c0 .5-.4 1-1 1-.5 0-1-.5-1-1 0-.6.5-1 1-1 .6 0 1 .4 1 1zm342.7 3.6c.8 1.8.9 3.2.3 4.4-.9 1.6.6 2.6 11.3 7.9 26.7 13.2 31.7 17.1 35.5 27.3 5.8 15.6 6.1 57.3.6 88.8-1.2 6.8-5.1 13.3-9.6 16.3-5.4 3.6-10.2 3.3-20.1-1.2-3.8-1.7-7.5-3.1-8.3-3.1s-1.4-.4-1.4-.9-1.9-1.7-4.2-2.7c-7.2-3.2-44.1-22.5-48-25.1-4.1-2.8-6.8-7.6-6.8-12.2 0-1.7 1.4-7.5 3.1-12.9 1.8-5.3 5.6-17.4 8.6-26.7 3-9.4 5.9-17.9 6.3-19 3-7.2 8.4-23.3 8.3-24.7-.1-1 .2-1.8.6-1.8s1.5-1.8 2.5-4c2.1-4.8 5.2-7.1 9.7-7.2 2.4-.1 3.6-.8 4.8-2.9 2-3.7 5.2-3.8 6.8-.3zm93.3.4c0 .5-.4 1-1 1-.5 0-1-.5-1-1 0-.6.5-1 1-1 .6 0 1 .4 1 1zm123 0c0 .5-.4 1-1 1-.5 0-1-.5-1-1 0-.6.5-1 1-1 .6 0 1 .4 1 1zm68 0c0 .5-.4 1-1 1-.5 0-1-.5-1-1 0-.6.5-1 1-1 .6 0 1 .4 1 1zm58 0c0 .5-.4 1-1 1-.5 0-1-.5-1-1 0-.6.5-1 1-1 .6 0 1 .4 1 1zm-164 2c0 .5-.4 1-1 1-.5 0-1-.5-1-1 0-.6.5-1 1-1 .6 0 1 .4 1 1zm-718.6 4.1c-.3.5-1 .7-1.5.3-.5-.3-.7-1-.3-1.5.3-.5 1-.7 1.5-.3.5.3.7 1 .3 1.5zm729.6.5c0 .8-.7 1.4-1.5 1.4-1.5 0-2.1-2.1-.9-3.3 1-.9 2.4.2 2.4 1.9zm-219-.6c0 .5-.4 1-1 1-.5 0-1-.5-1-1 0-.6.5-1 1-1 .6 0 1 .4 1 1zm231 0c0 .5-.4 1-1 1-.5 0-1-.5-1-1 0-.6.5-1 1-1 .6 0 1 .4 1 1zm80 0c0 .5-.4 1-1 1-.5 0-1-.5-1-1 0-.6.5-1 1-1 .6 0 1 .4 1 1zm-626 1c0 .5-.4 1-1 1-.5 0-1-.5-1-1 0-.6.5-1 1-1 .6 0 1 .4 1 1zm446.8 1.8c.2.7-.3 1.2-1.2 1.2s-1.6-.7-1.6-1.6c0-1.7 2.2-1.4 2.8.4zm-711.4 1.3c-.3.5-1 .7-1.5.3-.5-.3-.7-1-.3-1.5.3-.5 1-.7 1.5-.3.5.3.7 1 .3 1.5zm139.6 3.9c0 .5-.4 1-1 1-.5 0-1-.5-1-1 0-.6.5-1 1-1 .6 0 1 .4 1 1zm-193 1.5c0 .8-.7 1.5-1.5 1.5s-1.5-.7-1.5-1.5.7-1.5 1.5-1.5 1.5.7 1.5 1.5zm369.5 3.4c5 2.3 14 6.6 20 9.4 6.1 2.8 13.5 6.6 16.5 8.3s9.4 5.2 14.1 7.7c9.7 5.2 13.5 8.6 14.4 12.7 1.1 5.1.9 5.5-21.8 55.7-5.8 12.8-10.1 23.3-9.6 23.3s.9.5.9 1.1-.7.9-1.5.6c-.7-.3-4 .3-7.2 1.5l-5.8 2.1-32-16.1c-35.1-17.6-39.8-20.7-43.5-29.4-1.9-4.5-2.2-6.4-1.7-13.3.3-4.4.7-8.7 1-9.5.2-.8.7-2.9 1.2-4.5 3.7-14.7 16.4-44.2 20.8-48.3 4.2-4 11.4-6.3 18.7-5.9 5.1.3 8.4 1.3 15.5 4.6zm-288.5-2.3c0 1.7-2.2 1.4-2.8-.4-.2-.7.3-1.2 1.2-1.2s1.6.7 1.6 1.6zm22.4-1c2.1.8 2.1 4.3 0 5.1-.8.3-2.3-.1-3.1-1-1.3-1.3-1.4-1.9-.3-3.1 1.4-1.8 1.3-1.8 3.4-1zm304.1.4c.3.5-.1 1-.9 1-.9 0-1.6-.5-1.6-1 0-.6.4-1 .9-1 .6 0 1.3.4 1.6 1zm385.5 0c0 .5-.4 1-1 1-.5 0-1-.5-1-1 0-.6.5-1 1-1 .6 0 1 .4 1 1zm-700 1c0 .5-.4 1-1 1-.5 0-1-.5-1-1 0-.6.5-1 1-1 .6 0 1 .4 1 1zm734 1c0 .5-.4 1-1 1-.5 0-1-.5-1-1 0-.6.5-1 1-1 .6 0 1 .4 1 1zm-762.6 2.1c-.3.5-1 .7-1.5.3-.5-.3-.7-1-.3-1.5.3-.5 1-.7 1.5-.3.5.3.7 1 .3 1.5zm103.6-.6c0 .8-.7 1.5-1.5 1.5s-1.5-.7-1.5-1.5.7-1.5 1.5-1.5 1.5.7 1.5 1.5zm149.8 1.1c.4 2.7-2.6 4-4.6 2-1.3-1.3-1.3-1.8-.2-3.1 1.8-2.1 4.4-1.5 4.8 1.1zm-174.8-.6c0 .5-.4 1-1 1-.5 0-1-.5-1-1 0-.6.5-1 1-1 .6 0 1 .4 1 1zm328.9 2.9c-1.5.5-2.2-.6-1.4-1.9.6-.9 1-.9 1.6.1.5.8.4 1.5-.2 1.8zm154.1-.9c0 .5-.4 1-1 1-.5 0-1-.5-1-1 0-.6.5-1 1-1 .6 0 1 .4 1 1zm125 .5c1.5 1.8.7 4.3-1.6 5.2-2.4.9-4.6-2.4-3.3-4.8 1.2-2.3 3.2-2.4 4.9-.4zm52-.5c0 .5-.4 1-1 1-.5 0-1-.5-1-1 0-.6.5-1 1-1 .6 0 1 .4 1 1zm-761.3.6c-.3.3-1.2.4-1.9.1-.8-.3-.5-.6.6-.6 1.1-.1 1.7.2 1.3.5zm817.3.9c0 .8-.4 1.5-.9 1.5-1.3 0-2.2-1.6-1.4-2.4 1.1-1.1 2.3-.6 2.3.9zm-562 1.5c0 .5-.4 1-1 1-.5 0-1-.5-1-1 0-.6.5-1 1-1 .6 0 1 .4 1 1zm-229 1c0 .5-.2 1-.4 1-.3 0-.8-.5-1.1-1-.3-.6-.1-1 .4-1 .6 0 1.1.4 1.1 1zm128.2.5c0 .5-.5 1.1-1.1 1.3s-1.1-.4-1.1-1.3.5-1.5 1.1-1.3 1.1.8 1.1 1.3zm280.8-.5c0 .5-.4 1-1 1-.5 0-1-.5-1-1 0-.6.5-1 1-1 .6 0 1 .4 1 1zm-474.6 2.1c-.3.5-1 .7-1.5.3-.5-.3-.7-1-.3-1.5.3-.5 1-.7 1.5-.3.5.3.7 1 .3 1.5zm123.1.2c1.9 1.5 3 8 1.1 7.4-.6-.2-1.6.3-2.1 1-.9 1.2-1.5 1-3.8-1.1-3.2-3-3.3-4-.7-6.6 2.4-2.4 3-2.4 5.5-.7zm282.3-.2c-.2.6-.8 1-1.3 1s-1.1-.4-1.3-1 .4-1.1 1.3-1.1 1.5.5 1.3 1.1zm577 .7c.2.7-.3 1.2-1.2 1.2s-1.6-.7-1.6-1.6c0-1.7 2.2-1.4 2.8.4zm-813.8 1.8c0 .8-.7 1.4-1.5 1.4-1.5 0-2.1-2.1-.9-3.3 1-.9 2.4.2 2.4 1.9zm264-1.1c0 .8-.4 1.5-1 1.5-.5 0-1-.7-1-1.5s.5-1.5 1-1.5c.6 0 1 .7 1 1.5zm489 0c0 .8-.4 1.5-1 1.5-.5 0-1-.7-1-1.5s.5-1.5 1-1.5c.6 0 1 .7 1 1.5zm-732 1.5c0 .5-.4 1-1 1-.5 0-1-.5-1-1 0-.6.5-1 1-1 .6 0 1 .4 1 1zm-53 1.5c0 .8-.4 1.5-1 1.5-.5 0-1-.7-1-1.5s.5-1.5 1-1.5c.6 0 1 .7 1 1.5zm791-.5c0 .5-.4 1-1 1-.5 0-1-.5-1-1 0-.6.5-1 1-1 .6 0 1 .4 1 1zm-165 1c0 .5-.2 1-.4 1-.3 0-.8-.5-1.1-1-.3-.6-.1-1 .4-1 .6 0 1.1.4 1.1 1zm-285.5 1c.3.5.1 1-.4 1-.6 0-1.1-.5-1.1-1 0-.6.2-1 .4-1 .3 0 .8.4 1.1 1zm140.5 2.6c0 .8-.7 1.4-1.5 1.4-1.5 0-2.1-2.1-.9-3.3 1-.9 2.4.2 2.4 1.9zm332 1.4c0 .5-.4 1-1 1-.5 0-1-.5-1-1 0-.6.5-1 1-1 .6 0 1 .4 1 1zm-931.6 3.1c-.3.5-1 .7-1.5.3-.5-.3-.7-1-.3-1.5.3-.5 1-.7 1.5-.3.5.3.7 1 .3 1.5zm788.4-.3c.6 1.8-1.5 1.4-2.2-.4-.4-1-.1-1.4.6-1.2.6.2 1.4 1 1.6 1.6zm-744 .4c1.5 1.5 1.6 2.8.2 2.8-.5 0-1-.6-1-1.4s-.6-1.7-1.2-1.9c-.7-.3-.8-.6-.2-.6.5-.1 1.5.4 2.2 1.1zm255.2 1.3c0 .8-.7 1.5-1.5 1.5s-1.5-.7-1.5-1.5.7-1.5 1.5-1.5 1.5.7 1.5 1.5zm139.3 0c.1.5-.6 1.1-1.5 1.3-1.1.2-1.8-.3-1.8-1.3 0-1.7 3-1.8 3.3 0zm-375.5 1.2c-.4 2.2-2.2 2-2.6-.1-.2-1 .3-1.6 1.3-1.6s1.5.7 1.3 1.7zm709 0c.5 1.8-2.8 2.9-3.8 1.2-.5-.7-.6-1.7-.3-2.2.7-1.2 3.5-.5 4.1 1zm-690.3.3c.3.5.1 1-.4 1-.6 0-1.1-.5-1.1-1 0-.6.2-1 .4-1 .3 0 .8.4 1.1 1zm703.3 2c.1 2.9-1.1 4-2.3 2-.4-.7 1.4-5 2.1-5 0 0 .1 1.3.2 3zm79.6-.9c-.3.5-1 .7-1.5.3-.5-.3-.7-1-.3-1.5.3-.5 1-.7 1.5-.3.5.3.7 1 .3 1.5zm-702.9-.1c.3.5.1 1-.4 1-.6 0-1.1-.5-1.1-1 0-.6.2-1 .4-1 .3 0 .8.4 1.1 1zm276 4c-.5.8-1.1.8-1.7.2s-.7-1.6-.3-2.2c.5-.8 1.1-.8 1.7-.2s.7 1.6.3 2.2zm415.5-2c0 .5-.4 1-1 1-.5 0-1-.5-1-1 0-.6.5-1 1-1 .6 0 1 .4 1 1zm-738 .4c0 .3-.4.8-1 1.1-.5.3-1 .1-1-.4 0-.6.5-1.1 1-1.1.6 0 1 .2 1 .4zm722.4 1.7c-.3.5-1 .7-1.5.3-.5-.3-.7-1-.3-1.5.3-.5 1-.7 1.5-.3.5.3.7 1 .3 1.5zm-374.9-.1c.3.5-.1 1-1 1s-1.3-.5-1-1c.3-.6.8-1 1-1s.7.4 1 1zm4.5-.2c0 1.3-1.2 2.2-2.2 1.6s-.1-2.4 1.3-2.4c.5 0 .9.4.9.8zm457.8.3c-.2.6-.8 1-1.3 1s-1.1-.4-1.3-1 .4-1.1 1.3-1.1 1.5.5 1.3 1.1zm-112.4 2c-.3.5-1 .7-1.5.3-.5-.3-.7-1-.3-1.5.3-.5 1-.7 1.5-.3.5.3.7 1 .3 1.5zm117 0c-.3.5-1 .7-1.5.3-.5-.3-.7-1-.3-1.5.3-.5 1-.7 1.5-.3.5.3.7 1 .3 1.5zm-491.9.9c.3.5.1 1-.4 1-.6 0-1.1-.5-1.1-1 0-.6.2-1 .4-1 .3 0 .8.4 1.1 1zm466 1c.3.5.1 1-.4 1-.6 0-1.1-.5-1.1-1 0-.6.2-1 .4-1 .3 0 .8.4 1.1 1zm-114.5 1c0 .5-.4 1-1 1-.5 0-1-.5-1-1 0-.6.5-1 1-1 .6 0 1 .4 1 1zm-688 1c0 .5-.4 1-1 1-.5 0-1-.5-1-1 0-.6.5-1 1-1 .6 0 1 .4 1 1zm788 .5c0 .8-.4 1.5-.9 1.5-1.3 0-2.2-1.6-1.4-2.4 1.1-1.1 2.3-.6 2.3.9zm-187 .5c0 .5-.4 1-1 1-.5 0-1-.5-1-1 0-.6.5-1 1-1 .6 0 1 .4 1 1zm8 1.6c0 .8-.7 1.4-1.5 1.4-1.5 0-2.1-2.1-.9-3.3 1-.9 2.4.2 2.4 1.9zm167.4-.5c-.3.5-1 .7-1.5.3-.5-.3-.7-1-.3-1.5.3-.5 1-.7 1.5-.3.5.3.7 1 .3 1.5zm-426.4.4c0 .8-.7 1.5-1.5 1.5s-1.5-.7-1.5-1.5.7-1.5 1.5-1.5 1.5.7 1.5 1.5zm287.5-.5c.3.5-.1 1-1 1s-1.3-.5-1-1c.3-.6.8-1 1-1s.7.4 1 1zm-7.5 1c0 .5-.4 1-1 1-.5 0-1-.5-1-1 0-.6.5-1 1-1 .6 0 1 .4 1 1zm-698.6 2.1c-.3.5-1 .7-1.5.3-.5-.3-.7-1-.3-1.5.3-.5 1-.7 1.5-.3.5.3.7 1 .3 1.5zm814 1c-.3.5-1 .7-1.5.3-.5-.3-.7-1-.3-1.5.3-.5 1-.7 1.5-.3.5.3.7 1 .3 1.5zm-819.4-.1c0 .5-.4 1-1 1-.5 0-1-.5-1-1 0-.6.5-1 1-1 .6 0 1 .4 1 1zm776.5 2c.3.5-.1 1-1 1s-1.3-.5-1-1c.3-.6.8-1 1-1s.7.4 1 1zm-597.5 2.1c0 .5-.4.9-1 .9-.5 0-1-.7-1-1.6 0-.8.5-1.2 1-.9.6.3 1 1 1 1.6zm652-.1c0 2.1-2.4 2.8-3.5 1-.8-1.4.3-3 2.1-3 .8 0 1.4.9 1.4 2zm-812.6.6c2.3 2.2 2 4.7-.7 7.1l-2.4 2-2.7-2.9c-2.3-2.5-2.5-3.2-1.4-4.6 2.8-3.6 4.8-4.1 7.2-1.6zm762.6-.6c0 .5-.4 1-1 1-.5 0-1-.5-1-1 0-.6.5-1 1-1 .6 0 1 .4 1 1zm-748.2 1.2c-.6 1.8-2.8 2.1-2.8.4 0-.9.7-1.6 1.6-1.6s1.4.5 1.2 1.2zm23.7 1.9c0 1.5-.7 2.5-1.8 2.7-2.2.4-3.3-2.4-1.7-4.3 1.8-2.1 3.5-1.3 3.5 1.6zm136.5-1.6c0 .8-.7 1.5-1.5 1.5s-1.5-.7-1.5-1.5.7-1.5 1.5-1.5 1.5.7 1.5 1.5zm598 .5c0 1.1-.6 2-1.4 2-1.8 0-2.9-1.6-2.1-3 1.1-1.8 3.5-1.1 3.5 1zm-745-.6c0 1.1-1.9 1.5-2.5.6-.3-.5.1-1 .9-1 .9 0 1.6.2 1.6.4zm346 1.1c0 .8-.4 1.5-.9 1.5-1.3 0-2.2-1.6-1.4-2.4 1.1-1.1 2.3-.6 2.3.9zm381-.5c0 .5-.4 1-1 1-.5 0-1-.5-1-1 0-.6.5-1 1-1 .6 0 1 .4 1 1zm135.8.2c-.6 1.8-2.8 2.1-2.8.4 0-.9.7-1.6 1.6-1.6s1.4.5 1.2 1.2zm-915.4 5.9c-.3.5-1 .7-1.5.3-.5-.3-.7-1-.3-1.5.3-.5 1-.7 1.5-.3.5.3.7 1 .3 1.5zm818.2.6c-1 1-1.9-.5-1-1.8.6-1.1.8-1.1 1.2 0 .2.7.1 1.5-.2 1.8zm21.4-1.2c0 .8-.7 1.5-1.5 1.5s-1.5-.7-1.5-1.5.7-1.5 1.5-1.5 1.5.7 1.5 1.5zm-708 .5c0 .5-.4 1-1 1-.5 0-1-.5-1-1 0-.6.5-1 1-1 .6 0 1 .4 1 1zm313.3 4.5c5.1 2.3 17 8.1 26.4 12.8 9.6 4.8 17.9 8.4 18.8 8.1.8-.4 1.7.1 2.1 1 .3.8 7.6 5.2 16.2 9.7 18.2 9.5 20.7 11.2 22.3 15.1 2.6 6.3-1.3 16.6-17.1 45.8-4 7.4-8.4 15.5-9.7 18-3.9 7.2-8.7 13.3-12.4 15.8-2.9 2-4.3 2.3-8.9 1.9-6.5-.6-8.9-1.7-40.8-17.6-13.3-6.6-24.2-11.7-24.2-11.3s-.4.2-.8-.4c-1.1-1.8-17.2-9.5-18.3-8.9-.8.6-3.9-1.7-3.9-2.8 0-.2-1.5-2.1-3.4-4.1-5.3-5.5-5.5-9.9-1.3-21.6 1.9-5.2 6.9-16.6 11.1-25.4 4.2-8.7 7.3-16.2 7-16.7s0-.9.5-.9c1.1 0 11.6-19.9 11.3-21.3-.2-.5.1-.6.6-.3s2.8-.1 5.3-.9c5.6-1.8 8-1.3 19.2 4zm-263.9-.4c-.3.5-1 .7-1.5.3-.5-.3-.7-1-.3-1.5.3-.5 1-.7 1.5-.3.5.3.7 1 .3 1.5zm19.5 1.5c-1.5 1.8-2.8 1.8-3.6-.2s1.7-3.6 3.4-2.2c1 .8 1 1.4.2 2.4zm263.4-2.1c.1.5-.6 1.1-1.5 1.3-1.1.2-1.8-.3-1.8-1.3 0-1.7 3-1.8 3.3 0zm325.7 1.1c0 .8-.7 1.4-1.5 1.4-1.5 0-2.1-2.1-.9-3.3 1-.9 2.4.2 2.4 1.9zm105.7 0c-.9.9-2.8-.6-2.1-1.8.4-.6 1-.6 1.7.1.6.6.8 1.3.4 1.7zm-934.5-.1c0 .5-.5 1.1-1.1 1.3s-1.1-.4-1.1-1.3.5-1.5 1.1-1.3 1.1.8 1.1 1.3zm531.3-.5c1 1.6-1.6 4.3-2.8 3.1-1.1-1.1-.2-4.1 1.2-4.1.5 0 1.3.5 1.6 1zm80.5 1.1c0 .4-.7.6-1.5.3-.8-.4-1.5-1-1.5-1.5 0-.4.7-.6 1.5-.3.8.4 1.5 1 1.5 1.5zm223 .9c0 .5-.4 1-1 1-.5 0-1-.5-1-1 0-.6.5-1 1-1 .6 0 1 .4 1 1zm11.5 1.5c0 2.3-3.4 3.3-4.5 1.4-1.3-2 .1-4 2.4-3.7 1.3.2 2.1 1 2.1 2.3zm-777.3 0c0 .5-.5 1.1-1.1 1.3s-1.1-.4-1.1-1.3.5-1.5 1.1-1.3 1.1.8 1.1 1.3zm539.8 0c0 .8-.7 1.5-1.5 1.5-1.6 0-2-1.2-.8-2.3 1.1-1.2 2.3-.8 2.3.8zm-419 .5c0 .5-.4 1-1 1-.5 0-1-.5-1-1 0-.6.5-1 1-1 .6 0 1 .4 1 1zm607 0c0 .5-.4 1-1 1-.5 0-1-.5-1-1 0-.6.5-1 1-1 .6 0 1 .4 1 1zm-659.6 2.1c-.3.5-1 .7-1.5.3-.5-.3-.7-1-.3-1.5.3-.5 1-.7 1.5-.3.5.3.7 1 .3 1.5zm745 0c-.3.5-1 .7-1.5.3-.5-.3-.7-1-.3-1.5.3-.5 1-.7 1.5-.3.5.3.7 1 .3 1.5zm-351 1c-.3.5-1 .7-1.5.3-.5-.3-.7-1-.3-1.5.3-.5 1-.7 1.5-.3.5.3.7 1 .3 1.5zm-471.6.1c-.6 1.8-2.8 2.1-2.8.4 0-.9.7-1.6 1.6-1.6s1.4.5 1.2 1.2zm788.2.2c0 .3-.4.8-1 1.1-.5.3-1 .1-1-.4 0-.6.5-1.1 1-1.1.6 0 1 .2 1 .4zm-298.8 3.8c-1.5 1.5-2.6.4-1.8-1.8.5-1.3.9-1.5 1.8-.6s.9 1.5 0 2.4zm302.2-1.1c-.3.5-1 .7-1.5.3-.5-.3-.7-1-.3-1.5.3-.5 1-.7 1.5-.3.5.3.7 1 .3 1.5zm-630.4-.1c0 .5-.4 1-1 1-.5 0-1-.5-1-1 0-.6.5-1 1-1 .6 0 1 .4 1 1zm556-.6c0 .3-.4.8-1 1.1-.5.3-1 .1-1-.4 0-.6.5-1.1 1-1.1.6 0 1 .2 1 .4zm-581 2.6c0 2.1-2.4 2.8-3.5 1-.8-1.4.3-3 2.1-3 .8 0 1.4.9 1.4 2zm612.5 0c.3.5-.1 1-.9 1s-1.8-.5-2.1-1c-.3-.6.1-1 .9-1s1.8.4 2.1 1zm155.5 0c0 .5-.4 1-1 1-.5 0-1-.5-1-1 0-.6.5-1 1-1 .6 0 1 .4 1 1zm-945.6 2.1c-.3.5-1 .7-1.5.3-.5-.3-.7-1-.3-1.5.3-.5 1-.7 1.5-.3.5.3.7 1 .3 1.5zm181.6.4c0 .8-.4 1.5-.9 1.5-1.3 0-2.2-1.6-1.4-2.4 1.1-1.1 2.3-.6 2.3.9zm73.8-.3c-.6 1.8-2.8 2.1-2.8.4 0-.9.7-1.6 1.6-1.6s1.4.5 1.2 1.2zm-119.8.8c0 .5-.5 1-1.1 1-.5 0-.7-.5-.4-1 .3-.6.8-1 1.1-1 .2 0 .4.4.4 1zm762.4 1.1c-.3.5-1 .7-1.5.3-.5-.3-.7-1-.3-1.5.3-.5 1-.7 1.5-.3.5.3.7 1 .3 1.5zm-630.4-.1c0 .5-.4 1-1 1-.5 0-1-.5-1-1 0-.6.5-1 1-1 .6 0 1 .4 1 1zm595 2c0 .5-.4 1-1 1-.5 0-1-.5-1-1 0-.6.5-1 1-1 .6 0 1 .4 1 1zm-332.8 3.2c-1.5 1.5-2.6.4-1.8-1.8.5-1.3.9-1.5 1.8-.6s.9 1.5 0 2.4zm318.8-2.8c0 .3-.4.8-1 1.1-.5.3-1 .1-1-.4 0-.6.5-1.1 1-1.1.6 0 1 .2 1 .4zm-833 1.6c0 .5-.4 1-1 1-.5 0-1-.5-1-1 0-.6.5-1 1-1 .6 0 1 .4 1 1zm688.8.1c-.2.6-.8 1-1.3 1s-1.1-.4-1.3-1 .4-1.1 1.3-1.1 1.5.5 1.3 1.1zm-145.8 1.4c0 .8-.7 1.5-1.5 1.5s-1.5-.7-1.5-1.5.7-1.5 1.5-1.5 1.5.7 1.5 1.5zm-424 1c0 .8-.7 1.5-1.5 1.5s-1.5-.7-1.5-1.5.7-1.5 1.5-1.5 1.5.7 1.5 1.5zm662-1.1c0 .3-.4.8-1 1.1-.5.3-1 .1-1-.4 0-.6.5-1.1 1-1.1.6 0 1 .2 1 .4zm-380 4.6c0 .5-.4 1-1 1-.5 0-1-.5-1-1 0-.6.5-1 1-1 .6 0 1 .4 1 1zm520.5.8c0 1.8-2 1.5-2.3-.4-.3-1 .1-1.5 1-1.2.7.3 1.3 1 1.3 1.6zm-51.8 2.4c-.3.8-.6.5-.6-.6-.1-1.1.2-1.7.5-1.3.3.3.4 1.2.1 1.9zm-852.3 1.8c0 1.3-.5 2.5-1.2 2.8-.8.2-1.2-.7-1.2-2.8s.4-3 1.2-2.8c.7.3 1.2 1.5 1.2 2.8zm134.1.5c0 2.3-.5 3-1.9 3-2.8 0-4.3-2.9-2.6-5 2.1-2.5 4.5-1.4 4.5 2zm552.5-3.1c0 .3-.4.8-1 1.1-.5.3-1 .1-1-.4 0-.6.5-1.1 1-1.1.6 0 1 .2 1 .4zm87 1.1c0 .8-.7 1.5-1.5 1.5-1.6 0-2-1.2-.8-2.3 1.1-1.2 2.3-.8 2.3.8zm-39 .5c0 .5-.4 1-1 1-.5 0-1-.5-1-1 0-.6.5-1 1-1 .6 0 1 .4 1 1zm-777.2 2.3c.2 1.2-.3 1.7-1.7 1.7-1.2 0-2.1-.6-2.1-1.3 0-3.1 3.2-3.4 3.8-.4zm745.4-.8c0 .5-.5 1.1-1.1 1.3s-1.1-.4-1.1-1.3.5-1.5 1.1-1.3 1.1.8 1.1 1.3zm-315.2 1c0 .8-.7 1.5-1.5 1.5s-1.5-.7-1.5-1.5.7-1.5 1.5-1.5 1.5.7 1.5 1.5zm395-.6c0 .6-.4 1.3-1 1.6-.5.3-1-.1-1-.9 0-.9.5-1.6 1-1.6.6 0 1 .4 1 .9zm-264 1.1c0 .5-.2 1-.4 1-.3 0-.8-.5-1.1-1-.3-.6-.1-1 .4-1 .6 0 1.1.4 1.1 1zm-483.8 1.5c0 .5-.5 1.1-1.1 1.3s-1.1-.4-1.1-1.3.5-1.5 1.1-1.3 1.1.8 1.1 1.3zm30 1c0 .5-.5 1.1-1.1 1.3s-1.1-.4-1.1-1.3.5-1.5 1.1-1.3 1.1.8 1.1 1.3zm109.2 2.6c-.3.5-1 .7-1.5.3-.5-.3-.7-1-.3-1.5.3-.5 1-.7 1.5-.3.5.3.7 1 .3 1.5zm567 0c-.3.5-1 .7-1.5.3-.5-.3-.7-1-.3-1.5.3-.5 1-.7 1.5-.3.5.3.7 1 .3 1.5zm13.1.9c0 1.8-.6 2.6-2.3 2.8-1.3.2-2.5-.3-2.8-1.2-1-2.6.4-4.8 2.8-4.4 1.7.2 2.3 1 2.3 2.8zm-495.5-1c0 .5-.4 1-1 1-.5 0-1-.5-1-1 0-.6.5-1 1-1 .6 0 1 .4 1 1zm614 0c0 .5-.4 1-1 1-.5 0-1-.5-1-1 0-.6.5-1 1-1 .6 0 1 .4 1 1zm-821.6.6c2.1.8 2.1 4.3 0 5.1-.8.3-2.3-.1-3.1-1-1.3-1.3-1.4-1.9-.3-3.1 1.4-1.8 1.3-1.8 3.4-1zm-10.4 1.4c0 .5-.4 1-1 1-.5 0-1-.5-1-1 0-.6.5-1 1-1 .6 0 1 .4 1 1zm654.7 1.6c-.9.9-2.8-.6-2.1-1.8.4-.6 1-.6 1.7.1.6.6.8 1.3.4 1.7zm-488.2 2.4c.3 1.1.2 2.8-.4 3.7-.6 1-1.1 1.4-1.1.9s-.6-.4-1.3.2c-1 .9-1.9.7-3.5-.4-2.8-1.9-2.8-4.9 0-6.8 2.5-1.8 5.3-.7 6.3 2.4zm316.5-2.5c0 .8-.7 1.5-1.5 1.5s-1.5-.7-1.5-1.5.7-1.5 1.5-1.5 1.5.7 1.5 1.5zm-303 .5c0 .5-.4 1-1 1-.5 0-1-.5-1-1 0-.6.5-1 1-1 .6 0 1 .4 1 1zm318 1.5c0 .8-.7 1.5-1.5 1.5s-1.5-.7-1.5-1.5.7-1.5 1.5-1.5 1.5.7 1.5 1.5zm267.4.6c-.3.5-1 .7-1.5.3-.5-.3-.7-1-.3-1.5.3-.5 1-.7 1.5-.3.5.3.7 1 .3 1.5zm-428-.5c2 .8 2.1 3.8.2 5.3-2.2 1.8-4.6.2-4.6-3 0-2.9 1.2-3.5 4.4-2.3zm-393.9 3.9c0 2.5-.4 3-2.5 3-2.8 0-3.9-2.7-1.9-5.1s4.4-1.3 4.4 2.1zm3-2.5c.3.5.1 1-.4 1-.6 0-1.1-.5-1.1-1 0-.6.2-1 .4-1 .3 0 .8.4 1.1 1zm122.9 2.1c-.3.5-1 .7-1.5.3-.5-.3-.7-1-.3-1.5.3-.5 1-.7 1.5-.3.5.3.7 1 .3 1.5zm722 0c-.3.5-1 .7-1.5.3-.5-.3-.7-1-.3-1.5.3-.5 1-.7 1.5-.3.5.3.7 1 .3 1.5zm-662.4 2.9c0 .5-.4 1-1 1-.5 0-1-.5-1-1 0-.6.5-1 1-1 .6 0 1 .4 1 1zm397.4 1.1c-.3.5-1 .7-1.5.3-.5-.3-.7-1-.3-1.5.3-.5 1-.7 1.5-.3.5.3.7 1 .3 1.5zm135.4-1c-.2.6-.8 1-1.3 1s-1.1-.4-1.3-1 .4-1.1 1.3-1.1 1.5.5 1.3 1.1zm181.2.4c0 .8-.7 1.5-1.5 1.5s-1.5-.7-1.5-1.5.7-1.5 1.5-1.5 1.5.7 1.5 1.5zm34-.5c0 .5-.4 1-1 1-.5 0-1-.5-1-1 0-.6.5-1 1-1 .6 0 1 .4 1 1zm-847.2 2.2c1.7 1.7 1.5 4.2-.7 6.2-2.3 2-4.7 1.2-6.5-2.2-1.2-2.3-1.2-2.8.3-3.9 2.1-1.6 5.4-1.6 6.9-.1zm104.6.9c-.3.5-1 .7-1.5.3-.5-.3-.7-1-.3-1.5.3-.5 1-.7 1.5-.3.5.3.7 1 .3 1.5zm66.1-.1c.3.5.1 1-.4 1-.6 0-1.1-.5-1.1-1 0-.6.2-1 .4-1 .3 0 .8.4 1.1 1zm-154.5 2.5c0 .8-.4 1.5-1 1.5-.5 0-1-.7-1-1.5s.5-1.5 1-1.5c.6 0 1 .7 1 1.5zm152-.5c0 .5-.2 1-.4 1-.3 0-.8-.5-1.1-1-.3-.6-.1-1 .4-1 .6 0 1.1.4 1.1 1zm287.8 2.3c.2 1.2-.3 1.7-1.7 1.7-1.2 0-2.1-.6-2.1-1.3 0-3.1 3.2-3.4 3.8-.4zm61.2-.3c0 .5-.2 1-.4 1-.3 0-.8-.5-1.1-1-.3-.6-.1-1 .4-1 .6 0 1.1.4 1.1 1zm-57.8 1.5c0 .5-.5 1.1-1.1 1.3s-1.1-.4-1.1-1.3.5-1.5 1.1-1.3 1.1.8 1.1 1.3zm-167.7 3c0 2.3-3.4 3.3-4.5 1.4-1.3-2 .1-4 2.4-3.7 1.3.2 2.1 1 2.1 2.3zm396.9-.4c-.3.5-1 .7-1.5.3-.5-.3-.7-1-.3-1.5.3-.5 1-.7 1.5-.3.5.3.7 1 .3 1.5zm-707.6.1c-.6 1.8-2.8 2.1-2.8.4 0-.9.7-1.6 1.6-1.6s1.4.5 1.2 1.2zm221.1 1.6c.3.4 11.8 6.2 25.5 13s26.2 13.2 27.7 14.3 4 4.4 5.5 7.4c1.4 3 3.3 5.5 4 5.5.8 0 1.4.4 1.4 1 0 .5-.6 1-1.2 1-1.8 0-7.1 38.2-5.5 39.2.9.5.7 1.1-.4 2-1.5 1.2-2.6 6.3-4.6 21.8-1.5 12.2-4.5 27.5-5.8 30-2.5 4.8-7.8 8.2-12.8 8.2-9.9 0-17.1-7.3-29.6-29.5-3.9-7.1-10.2-21.3-14.3-32.2-4.6-12.4-11.1-37.5-11.6-44.5-.1-1.4-.6-5.9-1.1-10-1.7-14.9.2-22.2 7-26.8 3-2.1 4.2-2.3 9.3-1.8 3.3.3 6.2.9 6.5 1.4zm295.2 4.7c10.1 4.7 14.5 6.3 15.3 5.5 1.5-1.1 2.7-.3 2 1.4-.2.6 2.8 2.7 7.1 4.9 5.7 2.8 7.5 3.3 7.5 2.2 0-.8.7-1.5 1.5-1.5 1.7 0 2 1.1.5 2.6-.6.6 2.7 2.9 9.3 6.4 5.6 3 11.8 7 13.9 8.8 5.1 4.6 8.1 11.2 8.2 18.1 0 7.4-5.4 18.3-20.1 40.9-12.8 19.7-25.9 27.7-39.5 24.3-10-2.5-61.6-28.6-68.4-34.6-5.3-4.6-5-7.9 2.4-22.7 7.7-15.4 17.5-34 25.5-48.2 9.9-17.5 12.9-18.2 34.8-8.1zm-601.1-4.5c0 .5-.4 1-1 1-.5 0-1-.5-1-1 0-.6.5-1 1-1 .6 0 1 .4 1 1zm134 1c0 .5-.4 1-1 1-.5 0-1-.5-1-1 0-.6.5-1 1-1 .6 0 1 .4 1 1zm265.5 1c.3.5.1 1-.4 1-.6 0-1.1-.5-1.1-1 0-.6.2-1 .4-1 .3 0 .8.4 1.1 1zm309.9 2.1c-.3.5-1 .7-1.5.3-.5-.3-.7-1-.3-1.5.3-.5 1-.7 1.5-.3.5.3.7 1 .3 1.5zm5 0c-.3.5-1 .7-1.5.3-.5-.3-.7-1-.3-1.5.3-.5 1-.7 1.5-.3.5.3.7 1 .3 1.5zm152.6.3c0 .8-.4 1.7-.9 2.1-1.2.7-2.4-1.2-1.6-2.5.9-1.5 2.5-1.2 2.5.4zm-223 1.1c0 .8-.4 1.5-1 1.5-.5 0-1-.7-1-1.5s.5-1.5 1-1.5c.6 0 1 .7 1 1.5zm129-.5c0 .5-.4 1-1 1-.5 0-1-.5-1-1 0-.6.5-1 1-1 .6 0 1 .4 1 1zm53 .8c0 1.3-1.2 2.2-2.2 1.6s-.1-2.4 1.3-2.4c.5 0 .9.4.9.8zm-710 1.6c0 .3-.4.8-1 1.1-.5.3-1 .1-1-.4 0-.6.5-1.1 1-1.1.6 0 1 .2 1 .4zm827.8 1.3c-.4 2.2-2.2 2-2.6-.1-.2-1 .3-1.6 1.3-1.6s1.5.7 1.3 1.7zm-807.8.8c0 .8-.7 1.5-1.5 1.5s-1.5-.7-1.5-1.5.7-1.5 1.5-1.5 1.5.7 1.5 1.5zm643.4.6c-.3.5-1 .7-1.5.3-.5-.3-.7-1-.3-1.5.3-.5 1-.7 1.5-.3.5.3.7 1 .3 1.5zm-611.4 1.4c2.6 3.1-1.8 7.1-4.7 4.3-1.2-1.2-1.3-2-.4-3.7 1.4-2.5 3.4-2.7 5.1-.6zm541 0c0 .8-.4 1.5-1 1.5-.5 0-1-.7-1-1.5s.5-1.5 1-1.5c.6 0 1 .7 1 1.5zm-556 .5c0 .5-.4 1-1 1-.5 0-1-.5-1-1 0-.6.5-1 1-1 .6 0 1 .4 1 1zm739 2.5c0 .8-.6 1.5-1.4 1.5s-1.6.6-1.9 1.2c-.2.8-.8.9-1.3.4s-.4-1.1.4-1.3c.6-.3 1.2-1.1 1.2-1.9s.7-1.4 1.5-1.4 1.5.7 1.5 1.5zm-697 1.6c0 .5-.7.9-1.5.9-1.5 0-2-1.2-.9-2.3.8-.8 2.4.1 2.4 1.4zm363-.7c0 .8-.5 1.8-1.1 2.2-1.4.8-3.3-1.1-2.5-2.5 1-1.6 3.6-1.3 3.6.3zm-166 3.1c1.9 2.3.8 5-2 5-1.9 0-2.6-.6-2.8-2.4-.5-3.5 2.6-5.3 4.8-2.6zm425.5 3.5c-.5.8-1.1.8-1.7.2s-.7-1.6-.3-2.2c.5-.8 1.1-.8 1.7-.2s.7 1.6.3 2.2zm62.3-.2c.2.7-.3 1.2-1.2 1.2s-1.6-.7-1.6-1.6c0-1.7 2.2-1.4 2.8.4zm-855.9 4.8c-1.5 1.8-2.8 1.8-3.6-.2s1.7-3.6 3.4-2.2c1 .8 1 1.4.2 2.4zm184.1-1.5c0 .5-.4.9-1 .9-.5 0-1-.7-1-1.6 0-.8.5-1.2 1-.9.6.3 1 1 1 1.6zm-159 .9c1.6 1.6 1.8 2.5 1 4-1.4 2.6-2.7 3.3-5.4 2.6-2.9-.7-3.8-3.8-1.9-6.5 1.8-2.6 3.7-2.7 6.3-.1zm888 1.5c0 .8-.7 1.5-1.5 1.5s-1.5-.7-1.5-1.5.7-1.5 1.5-1.5 1.5.7 1.5 1.5zm-231.5.5c.3.5.1 1-.4 1-.6 0-1.1-.5-1.1-1 0-.6.2-1 .4-1 .3 0 .8.4 1.1 1zm-697.5 4.5c0 1.9-2 2.9-3.2 1.7-.8-.8-.7-1.6.2-2.6 1.4-1.7 3-1.2 3 .9zm195.8-1.6c.8.4 1.2 1.9 1 3.2-.2 1.8-.9 2.4-2.8 2.4-2.8 0-3.9-2.7-2-5 1.4-1.7 2-1.8 3.8-.6zm-117.8 4.6c0 .8-.7 1.5-1.5 1.5s-1.5-.7-1.5-1.5.7-1.5 1.5-1.5 1.5.7 1.5 1.5zm711.4.6c-.3.5-1 .7-1.5.3-.5-.3-.7-1-.3-1.5.3-.5 1-.7 1.5-.3.5.3.7 1 .3 1.5zm74-.6c.7 2-.2 4.2-2.1 4.9-2.2.9-3.3-.2-3.3-3.5 0-2.4.4-2.9 2.4-2.9 1.3 0 2.6.7 3 1.5zm-335.4 2.5c0 .5-.4 1-1 1-.5 0-1-.5-1-1 0-.6.5-1 1-1 .6 0 1 .4 1 1zm165 2.6c0 1.6-1.6 1.9-2.5.4-.8-1.3.4-3.2 1.6-2.5.5.4.9 1.3.9 2.1zm23.5-1.6c.3.5.1 1-.4 1-.6 0-1.1-.5-1.1-1 0-.6.2-1 .4-1 .3 0 .8.4 1.1 1zm-671.7 1.9c.8.4 1.2 1.9 1 3.2-.2 1.8-.9 2.4-2.8 2.4-2.8 0-3.9-2.7-2-5 1.4-1.7 2-1.8 3.8-.6zm480.2.1c0 .5-.4 1-1 1-.5 0-1-.5-1-1 0-.6.5-1 1-1 .6 0 1 .4 1 1zm214-.6c0 .3-.4.8-1 1.1-.5.3-1 .1-1-.4 0-.6.5-1.1 1-1.1.6 0 1 .2 1 .4zm-520 3.2c0 .8-.7 1.4-1.5 1.4-1.5 0-2.1-2.1-.9-3.3 1-.9 2.4.2 2.4 1.9zm174.5.4c-.5.8-1.1.8-1.7.2s-.7-1.6-.3-2.2c.5-.8 1.1-.8 1.7-.2s.7 1.6.3 2.2zm-285.5 1c0 .5-.5 1-1.1 1-.5 0-.7-.5-.4-1 .3-.6.8-1 1.1-1 .2 0 .4.4.4 1zm85 2c0 .5-.7 1-1.6 1-.8 0-1.2-.5-.9-1 .3-.6 1-1 1.6-1 .5 0 .9.4.9 1zm198 .4c0 1.1-1.9 1.5-2.5.6-.3-.5.1-1 .9-1 .9 0 1.6.2 1.6.4zm-384 2.1c0 .8-.7 1.5-1.5 1.5s-1.5-.7-1.5-1.5.7-1.5 1.5-1.5 1.5.7 1.5 1.5zm141.4.6c-.3.5-1 .7-1.5.3-.5-.3-.7-1-.3-1.5.3-.5 1-.7 1.5-.3.5.3.7 1 .3 1.5zm87.6 1c0 .5-.7.9-1.5.9-1.5 0-2-1.2-.9-2.3.8-.8 2.4.1 2.4 1.4zm37.8.1c-.6 1.8-2.8 2.1-2.8.4 0-.9.7-1.6 1.6-1.6s1.4.5 1.2 1.2zm-15.8 1.9c0 .5-.7.9-1.5.9-.9 0-1.2-.6-.9-1.5.6-1.5 2.4-1.1 2.4.6zm147.9 1.4c3 1.4 6.1 2.3 6.8 2.1.7-.3 1.3-.1 1.3.4 0 1 27.1 15 28.9 15 .6 0 2.7 1.1 4.7 2.5 4.6 3.1 5.2 3.1 4.7.1-.5-2.3 1.9-4.2 3.8-3 1.5.9 1 4.2-.8 5.2-1.3.8.1 1.9 7.4 5.5 9.9 5 13.7 8.7 14.7 14.3.6 3.1.2 4.9-2.8 10.8-2 3.9-4.9 8.7-6.6 10.6-1.6 1.9-5.7 6.9-9.1 11-8.2 9.9-28.5 30-37.9 37.6-7.8 6.3-20.5 14.4-22.6 14.4-.6 0-1.7.7-2.4 1.5-.8.9-1.8 1.1-2.8.6s-5-2.4-9.1-4.2c-4.1-1.9-8.5-4.5-9.8-5.9-3.4-3.7-5.4-10.4-6-21-.3-5.2-1-10.1-1.6-10.8-.7-.9-.7-1.6 0-2 .5-.4 1.3-5.7 1.7-11.7 1-17.5 2.6-24.8 11-52.3 4.7-15.6 10.7-23.2 18-23.2 1.7 0 5.5 1.2 8.5 2.5zm-278.9 1.5c0 .5-.4 1-1 1-.5 0-1-.5-1-1 0-.6.5-1 1-1 .6 0 1 .4 1 1zm641 1.6c0 .8-.5 1.2-1 .9-.6-.4-.8-1.1-.5-1.6.9-1.4 1.5-1.1 1.5.7zm87 .9c0 .8-.4 1.5-.9 1.5-1.3 0-2.2-1.6-1.4-2.4 1.1-1.1 2.3-.6 2.3.9zm-727 1c0 .8-.7 1.5-1.5 1.5s-1.5-.7-1.5-1.5.7-1.5 1.5-1.5 1.5.7 1.5 1.5zm30 2.6c0 .5-.7.9-1.5.9-1.5 0-2-1.2-.9-2.3.8-.8 2.4.1 2.4 1.4zm725-.6c2.6 3.2-1.3 8.1-4.7 5.9-3.5-2.2-2.3-7.4 1.7-7.4 1 0 2.3.7 3 1.5zm5-.1c0 .3-.4.8-1 1.1-.5.3-1 .1-1-.4 0-.6.5-1.1 1-1.1.6 0 1 .2 1 .4zm-873.6 4.7c-.3.5-1 .7-1.5.3-.5-.3-.7-1-.3-1.5.3-.5 1-.7 1.5-.3.5.3.7 1 .3 1.5zm54.6-.6c0 .8-.7 1.5-1.5 1.5s-1.5-.7-1.5-1.5.7-1.5 1.5-1.5 1.5.7 1.5 1.5zm411.2 0c0 .5-.5 1.1-1.1 1.3s-1.1-.4-1.1-1.3.5-1.5 1.1-1.3 1.1.8 1.1 1.3zm-394.4 1.3c.2.7-.3 1.2-1.2 1.2s-1.6-.7-1.6-1.6c0-1.7 2.2-1.4 2.8.4zm818.1-.4c2.5 3-1.6 6.7-4.4 4-1.1-1.2-1.2-2-.5-3.5 1.2-2.2 3.3-2.5 4.9-.5zm-678.9 1.6c0 .5-.4 1-1 1-.5 0-1-.5-1-1 0-.6.5-1 1-1 .6 0 1 .4 1 1zm154.5 2c-.5.8-1.1.8-1.7.2s-.7-1.6-.3-2.2c.5-.8 1.1-.8 1.7-.2s.7 1.6.3 2.2zm115.5-1c0 .5-.5 1-1.1 1-.5 0-.7-.5-.4-1 .3-.6.8-1 1.1-1 .2 0 .4.4.4 1zm223 1.6c0 .8-.7 1.4-1.5 1.4-1.5 0-2.1-2.1-.9-3.3 1-.9 2.4.2 2.4 1.9zm59-1.1c0 .8-.4 1.5-.9 1.5-1.3 0-2.2-1.6-1.4-2.4 1.1-1.1 2.3-.6 2.3.9zm-673 1c0 .8-.7 1.5-1.5 1.5s-1.5-.7-1.5-1.5.7-1.5 1.5-1.5 1.5.7 1.5 1.5zm-6.6 2.6c-.3.5-1 .7-1.5.3-.5-.3-.7-1-.3-1.5.3-.5 1-.7 1.5-.3.5.3.7 1 .3 1.5zm389.6-1.1c0 .5-.4 1-1 1-.5 0-1-.5-1-1 0-.6.5-1 1-1 .6 0 1 .4 1 1zm343 0c0 .5-.4 1-1 1-.5 0-1-.5-1-1 0-.6.5-1 1-1 .6 0 1 .4 1 1zm50.5 0c.3.5.1 1-.4 1-.6 0-1.1-.5-1.1-1 0-.6.2-1 .4-1 .3 0 .8.4 1.1 1zm-763.5 1c0 .5-.5 1-1.1 1-.5 0-.7-.5-.4-1 .3-.6.8-1 1.1-1 .2 0 .4.4.4 1zm-14 1c0 .5-.4 1-1 1-.5 0-1-.5-1-1 0-.6.5-1 1-1 .6 0 1 .4 1 1zm156.6.7c1.9 2.5 1.7 4.7-.6 6.8-2 1.8-2.1 1.8-4.5-.5-3.1-2.9-3.1-3.4-.3-6 2.7-2.5 3.7-2.5 5.4-.3zm533.4 2.8c1.5 1.8.6 4.5-1.3 4.5-.8 0-2-.7-2.7-1.5-1-1.2-1-1.8 0-3 1.6-1.9 2.4-1.9 4 0zm-549.5 2.5c-.5.8-1.1.8-1.7.2s-.7-1.6-.3-2.2c.5-.8 1.1-.8 1.7-.2s.7 1.6.3 2.2zm601.5-1.5c0 .8-.7 1.5-1.5 1.5s-1.5-.7-1.5-1.5.7-1.5 1.5-1.5 1.5.7 1.5 1.5zm-359 3.3c2.4 1.9 2.1 4.2-.5 4.2-1.3 0-4.5-3.7-4.5-5.2 0-1.4 2.7-.8 5 1zm257 2.2c1.2 2.3.4 4.7-2.1 6.1-1.4.7-2.3.5-3.9-1.1-2.5-2.5-2.5-3.4.1-5.9 2.3-2.2 4.4-1.8 5.9.9zm-605.4.7c-1 1-1.9-.5-1-1.8.6-1.1.8-1.1 1.2 0 .2.7.1 1.5-.2 1.8zm360.4-1.7c0 .5-.4 1-1 1-.5 0-1-.5-1-1 0-.6.5-1 1-1 .6 0 1 .4 1 1zm-140.9 3.3c-1.3 1.3-2.6.3-1.6-1.2.3-.6 1.1-.8 1.7-.5.6.4.6 1-.1 1.7zm-212.1.8c0 1.1-2.9 1.9-3.4 1-.3-.5-.3-1-.1-1.3.8-.7 3.5-.5 3.5.3zm68.8.6c-.4 2.2-2.2 2-2.6-.1-.2-1 .3-1.6 1.3-1.6s1.5.7 1.3 1.7zm511.2-.7c0 .5-.2 1-.4 1-.3 0-.8-.5-1.1-1-.3-.6-.1-1 .4-1 .6 0 1.1.4 1.1 1zm-233.9 2.3c-1.3 1.3-2.6.3-1.6-1.2.3-.6 1.1-.8 1.7-.5.6.4.6 1-.1 1.7zm419.9-1.3c0 .5-.4 1-1 1-.5 0-1-.5-1-1 0-.6.5-1 1-1 .6 0 1 .4 1 1zm-708.4 2.7c-1 1-1.9-.5-1-1.8.6-1.1.8-1.1 1.2 0 .2.7.1 1.5-.2 1.8zm715.4-2.3c0 .3-.4.8-1 1.1-.5.3-1 .1-1-.4 0-.6.5-1.1 1-1.1.6 0 1 .2 1 .4zm-227 4.6c1.2 2.2.4 4.6-1.6 5.4-.9.3-1.2 1-.9 1.6 1.1 1.7-.7 1.1-2.2-.8-3.2-4.1-3.4-5.1-1.3-7.2 2.2-2.2 4.5-1.8 6 1zm-189-1c0 .5-.4 1-1 1-.5 0-1-.5-1-1 0-.6.5-1 1-1 .6 0 1 .4 1 1zm-293.6 2.1c-.3.5-1 .7-1.5.3-.5-.3-.7-1-.3-1.5.3-.5 1-.7 1.5-.3.5.3.7 1 .3 1.5zm619.6-.1c0 .5-.4 1-1 1-.5 0-1-.5-1-1 0-.6.5-1 1-1 .6 0 1 .4 1 1zm-679 1c0 .5-.4 1-1 1-.5 0-1-.5-1-1 0-.6.5-1 1-1 .6 0 1 .4 1 1zm87 1.1c0 .5-.7.9-1.5.9-1.5 0-2-1.2-.9-2.3.8-.8 2.4.1 2.4 1.4zm527-.6c0 .8-.4 1.5-1 1.5-.5 0-1-.7-1-1.5s.5-1.5 1-1.5c.6 0 1 .7 1 1.5zm-516.5 6.5c0 .8-.8 1.6-1.7 1.8-1.3.2-1.8-.3-1.8-1.8s.5-2 1.8-1.8c.9.2 1.7 1 1.7 1.8zm581.5-.5c0 .8-.4 1.5-1 1.5-.5 0-1-.7-1-1.5s.5-1.5 1-1.5c.6 0 1 .7 1 1.5zm-684 2.5c0 .5-.2 1-.4 1-.3 0-.8-.5-1.1-1-.3-.6-.1-1 .4-1 .6 0 1.1.4 1.1 1zm81 0c0 .5-.4 1-1 1-.5 0-1-.5-1-1 0-.6.5-1 1-1 .6 0 1 .4 1 1zm-67.5 4c-.5.8-1.1.8-1.7.2s-.7-1.6-.3-2.2c.5-.8 1.1-.8 1.7-.2s.7 1.6.3 2.2zm373.5-2c0 .5-.7 1-1.6 1-.8 0-1.2-.5-.9-1 .3-.6 1-1 1.6-1 .5 0 .9.4.9 1zm-497.2 2.3c.2 1.2-.3 1.7-1.7 1.7-1.2 0-2.1-.6-2.1-1.3 0-3.1 3.2-3.4 3.8-.4zm24.3 2c-1.3 1.3-2.6.3-1.6-1.2.3-.6 1.1-.8 1.7-.5.6.4.6 1-.1 1.7zm458.1-1.1c3.2.7 5.8 1.6 5.8 2s11.1 6.4 24.8 13.2c14.7 7.4 25.9 13.7 27.6 15.5 4 4.2 4.6 11 1.4 16.6-5.5 9.3-31.9 24.2-59.9 33.6-13.4 4.5-15.6 5.5-15.1 7.1.3 1.2-.1 1.8-1.3 1.8s-1.6-.6-1.2-1.9c.4-1.8.2-1.8-5.2-.5-13.2 3.2-24.4 4.6-36.6 4.8-11.9.1-13.3-.1-17.1-2.2-4.9-2.8-6.9-6.1-7.8-12.4-1.1-7.7-2.7-5.7 38.3-47.1 25.9-26.2 28.2-28.3 34-30.3 4.5-1.6 5.2-1.7 12.3-.2zm-405 1.3c0 .5-.5 1.1-1.1 1.3s-1.1-.4-1.1-1.3.5-1.5 1.1-1.3 1.1.8 1.1 1.3zm463.8 1.5c0 .5-.4 1-1 1-.5 0-1-.5-1-1 0-.6.5-1 1-1 .6 0 1 .4 1 1zm-284 1.5c0 .8-.7 1.5-1.5 1.5s-1.5-.7-1.5-1.5.7-1.5 1.5-1.5 1.5.7 1.5 1.5zm-230.9 3.8c-.5.5-1.7.7-2.6.3-1.4-.5-1.5-.9-.5-2.1s1.6-1.3 2.7-.4c.9.8 1 1.6.4 2.2zm124.9-2.3c0 .5-.4 1-1 1-.5 0-1-.5-1-1 0-.6.5-1 1-1 .6 0 1 .4 1 1zm4.2.5c0 .5-.5 1.1-1.1 1.3s-1.1-.4-1.1-1.3.5-1.5 1.1-1.3 1.1.8 1.1 1.3zm83.6.6c-.2.6-.8 1-1.3 1s-1.1-.4-1.3-1 .4-1.1 1.3-1.1 1.5.5 1.3 1.1zm-39.4 2.5c2.1 2.1 2 3.7-.3 5.8-1.5 1.4-2.4 1.5-4 .6-1.2-.6-2.1-1.2-2.1-1.5 0-.2-.3-1-.6-1.8-.6-1.6 2-4.7 4.1-4.7.7 0 2.1.7 2.9 1.6zm618.1-.6c.3.5.1 1-.4 1-.6 0-1.1-.5-1.1-1 0-.6.2-1 .4-1 .3 0 .8.4 1.1 1zm-272.1 3.1c-.3.5-1 .7-1.5.3-.5-.3-.7-1-.3-1.5.3-.5 1-.7 1.5-.3.5.3.7 1 .3 1.5zm-436.2 4.1c-1.6 1.6-3.7-.4-2.8-2.8.6-1.6.8-1.6 2.3-.1 1.3 1.3 1.5 1.9.5 2.9zm-97.2-2.2c0 .5-.4 1-1 1-.5 0-1-.5-1-1 0-.6.5-1 1-1 .6 0 1 .4 1 1zm130 .8c0 1.3-1.2 2.2-2.2 1.6s-.1-2.4 1.3-2.4c.5 0 .9.4.9.8zm427-.4c0 .3-.4.8-1 1.1-.5.3-1 .1-1-.4 0-.6.5-1.1 1-1.1.6 0 1 .2 1 .4zm230 2.2c0 .8-.7 1.4-1.5 1.4-1.5 0-2.1-2.1-.9-3.3 1-.9 2.4.2 2.4 1.9zm-798.5-.6c-.3.5-1 1-1.6 1-.5 0-.9-.5-.9-1 0-.6.7-1 1.6-1 .8 0 1.2.4.9 1zm87.3 1.1c-.2.6-.8 1-1.3 1s-1.1-.4-1.3-1 .4-1.1 1.3-1.1 1.5.5 1.3 1.1zm96.3 2.2c-.8.8-1.1.7-1.1-.4 0-2 1.3-3.4 1.8-1.9.3.7-.1 1.7-.7 2.3zm466.9-2.3c0 .5-.5 1-1.1 1-.5 0-.7-.5-.4-1 .3-.6.8-1 1.1-1 .2 0 .4.4.4 1zm231 0c0 .5-.4 1-1 1-.5 0-1-.5-1-1 0-.6.5-1 1-1 .6 0 1 .4 1 1zm-721.2 1.1c-.2.6-.8 1-1.3 1s-1.1-.4-1.3-1 .4-1.1 1.3-1.1 1.5.5 1.3 1.1zm666.2 2.7c0 1.3-1.2 2.2-2.2 1.6s-.1-2.4 1.3-2.4c.5 0 .9.4.9.8zm-287.2 2c.2.7-.2 1-1.2.6-.9-.3-1.6-1.1-1.6-1.6 0-1.3 2.3-.5 2.8 1zm222.1.3c-2.2 1.4-3.3 1-1.9-.6.7-.8 1.7-1.2 2.2-.9.6.4.5 1-.3 1.5zm-651.9.8c0 1.7-1.8 2.1-2.4.6-.3-.9 0-1.5.9-1.5.8 0 1.5.4 1.5.9zm213 .1c0 .5-.4 1-1 1-.5 0-1-.5-1-1 0-.6.5-1 1-1 .6 0 1 .4 1 1zm-306.5 2c.3.5.1 1-.4 1-.6 0-1.1-.5-1.1-1 0-.6.2-1 .4-1 .3 0 .8.4 1.1 1zm305.5 1c0 .5-.2 1-.4 1-.3 0-.8-.5-1.1-1-.3-.6-.1-1 .4-1 .6 0 1.1.4 1.1 1zm-312.2 1.1c-.2.6-.8 1-1.3 1s-1.1-.4-1.3-1 .4-1.1 1.3-1.1 1.5.5 1.3 1.1zm59.6 1c-.3.5-1 .7-1.5.3-.5-.3-.7-1-.3-1.5.3-.5 1-.7 1.5-.3.5.3.7 1 .3 1.5zm105.6.9c0 .5-.4 1-.9 1-.6 0-1.3-.5-1.6-1-.3-.6.1-1 .9-1 .9 0 1.6.4 1.6 1zm-43.9 1.3c-.1 1.2-1.5.9-1.9-.4-.3-.6.1-1 .8-.8.6.3 1.1.8 1.1 1.2zm674.9.7c0 .5-.4 1-1 1-.5 0-1-.5-1-1 0-.6.5-1 1-1 .6 0 1 .4 1 1zm-617 2.6c0 .8-.7 1.4-1.5 1.4-1.5 0-2.1-2.1-.9-3.3 1-.9 2.4.2 2.4 1.9zm418-1.6c0 .5-.4 1-1 1-.5 0-1-.5-1-1 0-.6.5-1 1-1 .6 0 1 .4 1 1zm-39.5 4c0 1.8-.6 2.6-2.1 2.8-2.6.4-4-2.4-2.3-4.5 1.8-2.1 4.4-1.1 4.4 1.7zm303.5 1c0 .5-.4 1-1 1-.5 0-1-.5-1-1 0-.6.5-1 1-1 .6 0 1 .4 1 1zm-817 1.4c0 .3-.4.8-1 1.1-.5.3-1 .1-1-.4 0-.6.5-1.1 1-1.1.6 0 1 .2 1 .4zm275.4 2.7c-.3.5-1 .7-1.5.3-.5-.3-.7-1-.3-1.5.3-.5 1-.7 1.5-.3.5.3.7 1 .3 1.5zm424.6-1.1c0 .5-.4 1-.9 1-.6 0-1.3-.5-1.6-1-.3-.6.1-1 .9-1 .9 0 1.6.4 1.6 1zm26 1.6c0 .8-.7 1.4-1.5 1.4-1.5 0-2.1-2.1-.9-3.3 1-.9 2.4.2 2.4 1.9zm79-2.2c0 .3-.4.8-1 1.1-.5.3-1 .1-1-.4 0-.6.5-1.1 1-1.1.6 0 1 .2 1 .4zm-622 2.1c0 .8-.7 1.5-1.5 1.5s-1.5-.7-1.5-1.5.7-1.5 1.5-1.5 1.5.7 1.5 1.5zm-90.5 1.5c.3.5-.1 1-.9 1-.9 0-1.6-.5-1.6-1 0-.6.4-1 .9-1 .6 0 1.3.4 1.6 1zm672.2 3.6c-.9.9-2.8-.6-2.1-1.8.4-.6 1-.6 1.7.1.6.6.8 1.3.4 1.7zm-6.3.5c-.3.5-1 .7-1.5.3-.5-.3-.7-1-.3-1.5.3-.5 1-.7 1.5-.3.5.3.7 1 .3 1.5zm-84.4 2.5c0 .8-.7 1.4-1.5 1.4-1.5 0-2.1-2.1-.9-3.3 1-.9 2.4.2 2.4 1.9zm-516.5-.6c.3.5-.1 1-.9 1-.9 0-1.6-.5-1.6-1 0-.6.4-1 .9-1 .6 0 1.3.4 1.6 1zm5.5 0c0 .5-.4 1-1 1-.5 0-1-.5-1-1 0-.6.5-1 1-1 .6 0 1 .4 1 1zm11.5 1.5c0 2.3-3.4 3.3-4.5 1.4-1.3-2 .1-4 2.4-3.7 1.3.2 2.1 1 2.1 2.3zm581.5 0c0 .8-.7 1.5-1.5 1.5s-1.5-.7-1.5-1.5.7-1.5 1.5-1.5 1.5.7 1.5 1.5zm42 6.5c0 2.4-2.6 3.8-4.2 2.2s-.2-4.2 2.2-4.2c1.3 0 2 .7 2 2zm-792 2c0 .5-.4 1-1 1-.5 0-1-.5-1-1 0-.6.5-1 1-1 .6 0 1 .4 1 1zm82 .4c0 .3-.4.8-1 1.1-.5.3-1 .1-1-.4 0-.6.5-1.1 1-1.1.6 0 1 .2 1 .4zm189.1 2.9c-.5.5-1.7.7-2.6.3-1.4-.5-1.5-.9-.5-2.1s1.6-1.3 2.7-.4c.9.8 1 1.6.4 2.2zm-132.1-.3c0 .5-.4 1-1 1-.5 0-1-.5-1-1 0-.6.5-1 1-1 .6 0 1 .4 1 1zm-8 4.6c0 .8-.7 1.4-1.5 1.4-1.5 0-2.1-2.1-.9-3.3 1-.9 2.4.2 2.4 1.9zm72-1.6c0 .5-.4 1-1 1-.5 0-1-.5-1-1 0-.6.5-1 1-1 .6 0 1 .4 1 1zm-214.5 1c.8 1.3-.4 7-1.4 7-.4 0-1.4-1.1-2.1-2.5-1.1-2-1.1-2.7 0-4 1.5-1.7 2.6-1.9 3.5-.5zm100.5 1.7c0 1.3-.3 1.3-1.5.3-.8-.7-1.2-1.6-.9-2.1.8-1.3 2.4-.1 2.4 1.8zm147.4-.6c-.3.5-1 .7-1.5.3-.5-.3-.7-1-.3-1.5.3-.5 1-.7 1.5-.3.5.3.7 1 .3 1.5zm9 1.5c2 .8 2.1 3.8.2 5.3-1.9 1.6-4.6.3-4.6-2.3 0-3.4 1.2-4.2 4.4-3zm499.3 4c-.9.9-2.8-.6-2.1-1.8.4-.6 1-.6 1.7.1.6.6.8 1.3.4 1.7zm21.8 1.4c0 .8-.8 1.6-1.7 1.8-1.3.2-1.8-.3-1.8-1.8s.5-2 1.8-1.8c.9.2 1.7 1 1.7 1.8zm-535.1 2.1c-.3.5-1 .7-1.5.3-.5-.3-.7-1-.3-1.5.3-.5 1-.7 1.5-.3.5.3.7 1 .3 1.5zm96.6-.6c0 .8-.7 1.5-1.5 1.5s-1.5-.7-1.5-1.5.7-1.5 1.5-1.5 1.5.7 1.5 1.5zm-221 .9c0 .3-.4.8-1 1.1-.5.3-1 .1-1-.4 0-.6.5-1.1 1-1.1.6 0 1 .2 1 .4zm15.8 1.3c-.4 2.2-2.2 2-2.6-.1-.2-1 .3-1.6 1.3-1.6s1.5.7 1.3 1.7zm71.2-.7c0 .5-.4 1-1 1-.5 0-1-.5-1-1 0-.6.5-1 1-1 .6 0 1 .4 1 1zm356 1c0 .5-.2 1-.4 1-.3 0-.8-.5-1.1-1-.3-.6-.1-1 .4-1 .6 0 1.1.4 1.1 1zm-227 2.6c0 .8-.7 1.4-1.5 1.4-1.5 0-2.1-2.1-.9-3.3 1-.9 2.4.2 2.4 1.9zm-205-.6c0 .5-.5 1-1.1 1-.5 0-.7-.5-.4-1 .3-.6.8-1 1.1-1 .2 0 .4.4.4 1zm-94 3.5c0 .8-.7 1.5-1.5 1.5s-1.5-.7-1.5-1.5.7-1.5 1.5-1.5 1.5.7 1.5 1.5zm189 4.5c0 .5-.4 1-1 1-.5 0-1-.5-1-1 0-.6.5-1 1-1 .6 0 1 .4 1 1zm-56.7 4.6c-.8 2-3.3 1.7-3.3-.4 0-1 .3-2.2.7-2.5 1-1.1 3.2 1.3 2.6 2.9zm428-1.4c.7 2.1-.4 3.8-2.3 3.8-2.3 0-3.4-1.6-2.6-3.5.7-1.8 4.3-2 4.9-.3zm-350.5 2.9c-.2.6-.8 1-1.3 1s-1.1-.4-1.3-1 .4-1.1 1.3-1.1 1.5.5 1.3 1.1zm391.2-.7c0 .3-.4.8-1 1.1-.5.3-1 .1-1-.4 0-.6.5-1.1 1-1.1.6 0 1 .2 1 .4zm-334.4 4.2c-.3.9-.6 1.8-.6 2s-.4.4-.9.4-.7-.9-.4-2 1-2 1.5-2c.6 0 .7.7.4 1.6zm-2.6.2c0 1.3-1.2 2.2-2.2 1.6s-.1-2.4 1.3-2.4c.5 0 .9.4.9.8zm243.8 2.8c.2 1.2-.4 2.4-1.2 2.7-1.9.7-4-1.8-3.2-3.9.8-2.2 4-1.3 4.4 1.2zm170.2.4c0 .5-.4 1-1 1-.5 0-1-.5-1-1 0-.6.5-1 1-1 .6 0 1 .4 1 1zm-284 3.5c0 .8-.7 1.5-1.5 1.5s-1.5-.7-1.5-1.5.7-1.5 1.5-1.5 1.5.7 1.5 1.5zm201 2.5c0 .5-.4 1-1 1-.5 0-1-.5-1-1 0-.6.5-1 1-1 .6 0 1 .4 1 1zm30.4 3.1c-.3.5-1 .7-1.5.3-.5-.3-.7-1-.3-1.5.3-.5 1-.7 1.5-.3.5.3.7 1 .3 1.5zm-203 2c-.3.5-1 .7-1.5.3-.5-.3-.7-1-.3-1.5.3-.5 1-.7 1.5-.3.5.3.7 1 .3 1.5zm-334.4 2.3c0 .3-.4.8-1 1.1-.5.3-1 .1-1-.4 0-.6.5-1.1 1-1.1.6 0 1 .2 1 .4zm454.4 1.7c-.3.5-1 .7-1.5.3-.5-.3-.7-1-.3-1.5.3-.5 1-.7 1.5-.3.5.3.7 1 .3 1.5zm-70 2c-.3.5-1 .7-1.5.3-.5-.3-.7-1-.3-1.5.3-.5 1-.7 1.5-.3.5.3.7 1 .3 1.5zm-39.4-.1c0 .5-.5 1-1.1 1-.5 0-.7-.5-.4-1 .3-.6.8-1 1.1-1 .2 0 .4.4.4 1zm127 .6c0 1.7-2.2 1.4-2.8-.4-.2-.7.3-1.2 1.2-1.2s1.6.7 1.6 1.6zm-416.5 1.4c.3.5.1 1-.4 1-.6 0-1.1-.5-1.1-1 0-.6.2-1 .4-1 .3 0 .8.4 1.1 1zm-126.5 4.5c0 .8-.7 1.5-1.5 1.5s-1.5-.7-1.5-1.5.7-1.5 1.5-1.5 1.5.7 1.5 1.5zm75.6 2.1c-.6 1.7-.8 1.7-2.4 0-1.5-1.5-1.5-1.8-.2-2.6 1.9-1.2 3.5.3 2.6 2.6zm75.5-.5c1.9 1.7 2.1 2.2.9 2.9-3.8 2.4-7.6-.4-5-3.5 1.5-1.9 1.2-1.9 4.1.6zm-80.1-.1c0 .5-.4 1-1 1-.5 0-1-.5-1-1 0-.6.5-1 1-1 .6 0 1 .4 1 1zm229 1.6c0 1.7-2.2 1.4-2.8-.4-.2-.7.3-1.2 1.2-1.2s1.6.7 1.6 1.6zm164.4 2.5c-.3.5-1 .7-1.5.3-.5-.3-.7-1-.3-1.5.3-.5 1-.7 1.5-.3.5.3.7 1 .3 1.5zm-435.9.9c.3.5-.1 1-.9 1-.9 0-1.6-.5-1.6-1 0-.6.4-1 .9-1 .6 0 1.3.4 1.6 1zm117 0c.3.5.1 1-.4 1-.6 0-1.1-.5-1.1-1 0-.6.2-1 .4-1 .3 0 .8.4 1.1 1zm32.7 2.2c-1.5 1.5-2.6.4-1.8-1.8.5-1.3.9-1.5 1.8-.6s.9 1.5 0 2.4zm182.8-1.8c0 .8-.5 1.8-1.1 2.2-1.4.8-3.3-1.1-2.5-2.5 1-1.6 3.6-1.3 3.6.3zm169-.4c0 .5-.5 1-1.1 1-.5 0-.7-.5-.4-1 .3-.6.8-1 1.1-1 .2 0 .4.4.4 1zm-542 1c0 .5-.4 1-1 1-.5 0-1-.5-1-1 0-.6.5-1 1-1 .6 0 1 .4 1 1zm450.8 2.2c-.6 1.8-2.8 2.1-2.8.4 0-.9.7-1.6 1.6-1.6s1.4.5 1.2 1.2zm-170.3 1.8c.3.5-.1 1-1 1s-1.3-.5-1-1c.3-.6.8-1 1-1s.7.4 1 1zm-38.7 2.6c.2 1.2-.4 2.4-1.2 2.7-1.9.7-4-1.8-3.2-3.9.8-2.2 4-1.3 4.4 1.2zm78.8-.5c1 1.7-1.3 3.6-2.7 2.2-1.2-1.2-.4-3.3 1.1-3.3.5 0 1.2.5 1.6 1.1zm357.4.9c0 .5-.4 1-1 1-.5 0-1-.5-1-1 0-.6.5-1 1-1 .6 0 1 .4 1 1zm-656.2 3.3c.2 1-.3 1.7-1.2 1.7-1.8 0-2.9-1.6-2.1-3.1.9-1.4 2.9-.6 3.3 1.4zm376.4-.8c0 .5-.5 1.1-1.1 1.3s-1.1-.4-1.1-1.3.5-1.5 1.1-1.3 1.1.8 1.1 1.3zm-200.2.5c0 .5-.7 1-1.5 1s-1.5-.5-1.5-1c0-.6.7-1 1.5-1s1.5.4 1.5 1zm-98.8 2.5c0 .5-.5 1.1-1.1 1.3s-1.1-.4-1.1-1.3.5-1.5 1.1-1.3 1.1.8 1.1 1.3zm260.2 3.6c-.3.5-1 .7-1.5.3-.5-.3-.7-1-.3-1.5.3-.5 1-.7 1.5-.3.5.3.7 1 .3 1.5zm266 0c-.3.5-1 .7-1.5.3-.5-.3-.7-1-.3-1.5.3-.5 1-.7 1.5-.3.5.3.7 1 .3 1.5zm-419.4 4.9c0 .5-.4 1-1 1-.5 0-1-.5-1-1 0-.6.5-1 1-1 .6 0 1 .4 1 1zm70.4 1.1c-.3.5-1 .7-1.5.3-.5-.3-.7-1-.3-1.5.3-.5 1-.7 1.5-.3.5.3.7 1 .3 1.5zm16.8-.6c0 .5-.5 1.1-1.1 1.3s-1.1-.4-1.1-1.3.5-1.5 1.1-1.3 1.1.8 1.1 1.3zm169.1 3.1c-.4 1.2-.8 1.3-1.4.3-.9-1.5-.2-3.2 1.1-2.4.5.3.6 1.3.3 2.1zm-21.3 2.4c0 .5-.4 1-1 1-.5 0-1-.5-1-1 0-.6.5-1 1-1 .6 0 1 .4 1 1zm22.3 2.5c.7 1.8-.9 2.9-3 2.1-1.2-.5-1.3-.9-.3-2.1 1.6-1.9 2.6-1.9 3.3 0zm64.1.6c-.3.5-1 .7-1.5.3-.5-.3-.7-1-.3-1.5.3-.5 1-.7 1.5-.3.5.3.7 1 .3 1.5zm-439.4 1.9c0 .5-.4 1-1 1-.5 0-1-.5-1-1 0-.6.5-1 1-1 .6 0 1 .4 1 1zm127.2.5c0 .5-.5 1.1-1.1 1.3s-1.1-.4-1.1-1.3.5-1.5 1.1-1.3 1.1.8 1.1 1.3zm111.8-.5c0 .5-.4 1-1 1-.5 0-1-.5-1-1 0-.6.5-1 1-1 .6 0 1 .4 1 1zm-41.3 8c-.1 1.7-.7 3-1.2 3s-1.1-1.3-1.2-3c-.2-2.1.2-3 1.2-3s1.4.9 1.2 3zm191.3-.5c0 .8-.7 1.5-1.5 1.5s-1.5-.7-1.5-1.5.7-1.5 1.5-1.5 1.5.7 1.5 1.5zm129 3.1c0 .8-.7 1.4-1.5 1.4-1.5 0-2.1-2.1-.9-3.3 1-.9 2.4.2 2.4 1.9zm-182.6 1.3c.3.4.3 1.1 0 1.4-.8.8-3.4-.3-3.4-1.4s2.7-1.2 3.4 0zm-159.4 4.1c0 .5-.4 1-1 1-.5 0-1-.5-1-1 0-.6.5-1 1-1 .6 0 1 .4 1 1zm-177.2 1.7c.5 1.7-2.6 2.9-4 1.5-.6-.6-.7-1.5-.3-2.2.9-1.4 3.7-.9 4.3.7zm467.2.9c0 .8-.7 1.4-1.5 1.4-1.5 0-2.1-2.1-.9-3.3 1-.9 2.4.2 2.4 1.9zm-189.6 3.5c-.3.5-1 .7-1.5.3-.5-.3-.7-1-.3-1.5.3-.5 1-.7 1.5-.3.5.3.7 1 .3 1.5zm-163.4 4.9c0 .5-.4 1-1 1-.5 0-1-.5-1-1 0-.6.5-1 1-1 .6 0 1 .4 1 1zm293.4 2.1c-.3.5-1 .7-1.5.3-.5-.3-.7-1-.3-1.5.3-.5 1-.7 1.5-.3.5.3.7 1 .3 1.5zm-30.4 1.5c0 .8-.7 1.4-1.5 1.4-1.5 0-2.1-2.1-.9-3.3 1-.9 2.4.2 2.4 1.9zm-198 2.4c0 .5-.4 1-1 1-.5 0-1-.5-1-1 0-.6.5-1 1-1 .6 0 1 .4 1 1zm-52 11.5c0 .8-.7 1.5-1.5 1.5s-1.5-.7-1.5-1.5.7-1.5 1.5-1.5 1.5.7 1.5 1.5zm64 2c0 .8-.7 1.5-1.5 1.5s-1.5-.7-1.5-1.5.7-1.5 1.5-1.5 1.5.7 1.5 1.5zm106 0c0 .8-.7 1.5-1.5 1.5s-1.5-.7-1.5-1.5.7-1.5 1.5-1.5 1.5.7 1.5 1.5zm166-.5c0 .5-.5 1-1.1 1-.5 0-.7-.5-.4-1 .3-.6.8-1 1.1-1 .2 0 .4.4.4 1zm-243.6 8.1c-.3.5-1 .7-1.5.3-.5-.3-.7-1-.3-1.5.3-.5 1-.7 1.5-.3.5.3.7 1 .3 1.5zm105.6-.6c0 .8-.4 1.5-1 1.5-.5 0-1-.7-1-1.5s.5-1.5 1-1.5c.6 0 1 .7 1 1.5zm-119 3.1c0 .8-.7 1.4-1.5 1.4-1.5 0-2.1-2.1-.9-3.3 1-.9 2.4.2 2.4 1.9zm76-1.1c0 .8-.7 1.5-1.5 1.5s-1.5-.7-1.5-1.5.7-1.5 1.5-1.5 1.5.7 1.5 1.5zm-28.2 2.9c.5 2.4-1 3.8-3.1 3-1.7-.6-2.3-3.5-1-4.8 1.2-1.2 3.8-.1 4.1 1.8zm-103.3.6c.3.5.1 1-.4 1-.6 0-1.1-.5-1.1-1 0-.6.2-1 .4-1 .3 0 .8.4 1.1 1zm159.9 4.1c-.3.5-1 .7-1.5.3-.5-.3-.7-1-.3-1.5.3-.5 1-.7 1.5-.3.5.3.7 1 .3 1.5zm-164.4.9c0 .5-.2 1-.4 1-.3 0-.8-.5-1.1-1-.3-.6-.1-1 .4-1 .6 0 1.1.4 1.1 1zm225.4 4.1c-.3.5-1 .7-1.5.3-.5-.3-.7-1-.3-1.5.3-.5 1-.7 1.5-.3.5.3.7 1 .3 1.5zm-83 6c-.3.5-1 .7-1.5.3-.5-.3-.7-1-.3-1.5.3-.5 1-.7 1.5-.3.5.3.7 1 .3 1.5zm-47.4 7.5c0 1.7-.6 2.4-2 2.4-2.5 0-3.6-2.5-2-4.5s4-.7 4 2.1zm-60.7.9c.1.5-.6 1.1-1.5 1.3-1.1.2-1.8-.3-1.8-1.3 0-1.7 3-1.8 3.3 0zm28.1 7.6c-.3.5-1 .7-1.5.3-.5-.3-.7-1-.3-1.5.3-.5 1-.7 1.5-.3.5.3.7 1 .3 1.5zm150.6-.7c0 1.1-1.9 1.5-2.5.6-.3-.5.1-1 .9-1 .9 0 1.6.2 1.6.4zm-83 6.6c0 .5-.7 1-1.5 1s-1.5-.5-1.5-1c0-.6.7-1 1.5-1s1.5.4 1.5 1zm-10.6 9.1c-.8 1.4-3.4 1.1-3.4-.4 0-.8.3-1.7.7-2 .9-.9 3.4 1.3 2.7 2.4z"/><path d="m369 187.7c-10 1.2-27.2 6.9-29.2 9.8-.4.5-.8.6-.8.2 0-1.4-11.3 6.4-16.2 11-2.6 2.6-4.4 5.2-4.1 5.9.3.9-.2 1.4-1.4 1.4-4.4 0-17.2 24.1-19.9 37.5-1.2 5.7-1.4 8-.5 8.3 1.5.5 1.4 2.9-.3 3.5-1.7.7-1.1 12.9 1 20.3.8 2.9 1.4 5.6 1.2 6-.7 2.5 7.1 19.5 12 26.3s10.7 13.1 11.9 13.1c.7 0 1.3.6 1.3 1.2.1 1.5 6.8 6.8 8.6 6.8.7 0 4.5-4.2 8.5-9.3 6.3-7.9 17.2-20.8 21.7-25.6 1.1-1.2 1.1-1.6 0-2.3-1-.8-.9-.9.4-.4 1.2.3 4.2-2.3 10.5-9.1 8.3-9 21.5-21.4 27.6-25.8 2.4-1.7 2.7-2.5 2.2-5.2-.4-2.1-.1-3.6 1-4.7 1.9-1.9 2.5-1.9 6-.6 2.3.9 3.4.6 7.4-2.3 6.1-4.3 10.2-6 11.3-4.9.5.5 3.2 16.4 6 35.3 3.7 25.8 4.7 34.8 3.9 36.1-.6 1-1.1 2.5-1.1 3.4 0 1.2-.7 1.5-2.7 1.1-3.2-.6-4-.2-21.5 13.1-12.5 9.4-15.8 12.2-14.4 12.2 2.1 0 16.9-6.5 17.3-7.7.3-.8 1.1-1.2 1.8-.9.7.2 3.5-1 6.2-2.9 15-10.1 25.3-24 32.5-44 4.2-11.4 4.9-27.9 1.9-41.5-3.4-15.2-16.5-39.3-21.1-38.7-.8.1-1.5-.5-1.5-1.4 0-2-8.7-9.5-16.6-14.4-12.9-7.9-34.9-12.6-50.9-10.8zm16.5 8.3c-.5.8-1.1.8-1.7.2s-.7-1.6-.3-2.2c.5-.8 1.1-.8 1.7-.2s.7 1.6.3 2.2zm-7.5 1c0 .5-.4 1-1 1-.5 0-1-.5-1-1 0-.6.5-1 1-1 .6 0 1 .4 1 1zm-4 1c0 .5-.4 1-1 1-.5 0-1-.5-1-1 0-.6.5-1 1-1 .6 0 1 .4 1 1zm45 4.6c0 .8-.7 1.4-1.5 1.4-1.5 0-2.1-2.1-.9-3.3 1-.9 2.4.2 2.4 1.9zm-86.5 3.3c1 1.7-1.2 2.1-2.5.6-1-1.2-1-1.5.3-1.5.9 0 1.8.4 2.2.9zm24 0c.3.5.1 1.2-.5 1.6-.5.3-1-.1-1-.9 0-1.8.6-2.1 1.5-.7zm-19.7 2.3c-.6 1.8-2.8 2.1-2.8.4 0-.9.7-1.6 1.6-1.6s1.4.5 1.2 1.2zm65.2.9c0 .5-.7.9-1.5.9-1.5 0-2-1.2-.9-2.3.8-.8 2.4.1 2.4 1.4zm-68 4.9c0 .5-.4 1-1 1-.5 0-1-.5-1-1 0-.6.5-1 1-1 .6 0 1 .4 1 1zm-14 5c0 .5-.5 1-1.1 1-.5 0-.7-.5-.4-1 .3-.6.8-1 1.1-1 .2 0 .4.4.4 1zm34.8.2c-.6 1.8-2.8 2.1-2.8.4 0-.9.7-1.6 1.6-1.6s1.4.5 1.2 1.2zm31.2 1.8c0 .5-.5 1-1.1 1-.5 0-.7-.5-.4-1 .3-.6.8-1 1.1-1 .2 0 .4.4.4 1zm13.5 0c.3.5.1 1-.4 1-.6 0-1.1-.5-1.1-1 0-.6.2-1 .4-1 .3 0 .8.4 1.1 1zm18.5 10.4c0 1.1-1.9 1.5-2.5.6-.3-.5.1-1 .9-1 .9 0 1.6.2 1.6.4zm31 1.6c0 .5-.4 1-1 1-.5 0-1-.5-1-1 0-.6.5-1 1-1 .6 0 1 .4 1 1zm-92.6 3.1c-.3.5-1 .7-1.5.3-.5-.3-.7-1-.3-1.5.3-.5 1-.7 1.5-.3.5.3.7 1 .3 1.5zm-7.4.9c0 .5-.4 1-1 1-.5 0-1-.5-1-1 0-.6.5-1 1-1 .6 0 1 .4 1 1zm-29 2.5c0 .8-.7 1.5-1.5 1.5-1.6 0-2-1.2-.8-2.3 1.1-1.2 2.3-.8 2.3.8zm-10 1.6c0 .5-.7.9-1.5.9-1.5 0-2-1.2-.9-2.3.8-.8 2.4.1 2.4 1.4zm72.9.8c1.3 2.4-.9 5.7-3.3 4.8-2.3-.9-3.1-3.4-1.6-5.2 1.7-2 3.7-1.9 4.9.4zm23.6 6.1c-.5.8-1.1.8-1.7.2s-.7-1.6-.3-2.2c.5-.8 1.1-.8 1.7-.2s.7 1.6.3 2.2zm-79.5 3.6c0 .8-.7 1.4-1.5 1.4-1.5 0-2.1-2.1-.9-3.3 1-.9 2.4.2 2.4 1.9zm37.4-.5c-.3.5-1 .7-1.5.3-.5-.3-.7-1-.3-1.5.3-.5 1-.7 1.5-.3.5.3.7 1 .3 1.5zm-55.4-.1c0 .5-.4 1-1 1-.5 0-1-.5-1-1 0-.6.5-1 1-1 .6 0 1 .4 1 1zm4.8 2.2c-.6 1.8-2.8 2.1-2.8.4 0-.9.7-1.6 1.6-1.6s1.4.5 1.2 1.2zm-6 4c-.2 1.3-1.1 2.4-2 2.6-2.1.4-2.4-1.8-.6-3.6 1.9-1.9 3-1.4 2.6 1zm138.2 3.3c0 1.9-2 2.9-3.2 1.7-.8-.8-.7-1.6.2-2.6 1.4-1.7 3-1.2 3 .9zm-61-.6c0 .6-.4 1.3-1 1.6-.5.3-1-.1-1-.9 0-.9.5-1.6 1-1.6.6 0 1 .4 1 .9zm-21.7 5.6c-.3 1.7-3 1.7-3.7 0-.4-1.3-.1-1.6 1.7-1.3 1.2.2 2.1.7 2 1.3zm28.7 6.3c0 1.3-1.2 2.2-2.2 1.6s-.1-2.4 1.3-2.4c.5 0 .9.4.9.8zm63 .2c0 .5-.4 1-1 1-.5 0-1-.5-1-1 0-.6.5-1 1-1 .6 0 1 .4 1 1zm-93.6 2.1c-.3.5-1 .7-1.5.3-.5-.3-.7-1-.3-1.5.3-.5 1-.7 1.5-.3.5.3.7 1 .3 1.5zm-7.4.9c0 .5-.4 1-1 1-.5 0-1-.5-1-1 0-.6.5-1 1-1 .6 0 1 .4 1 1zm13.5 3.5c0 2.3-.5 3-1.9 3-2.4 0-4.1-2.7-3.3-4.9.4-1.1 1.5-1.6 2.9-1.4 1.8.2 2.3.9 2.3 3.3zm-32.5 3c0 .8-.7 1.5-1.5 1.5s-1.5-.7-1.5-1.5.7-1.5 1.5-1.5 1.5.7 1.5 1.5zm28 2.1c0 1.7-2.2 1.4-2.8-.4-.2-.7.3-1.2 1.2-1.2s1.6.7 1.6 1.6zm-33 .4c0 .5-.4 1-1 1-.5 0-1-.5-1-1 0-.6.5-1 1-1 .6 0 1 .4 1 1zm10 0c0 .5-.4 1-1 1-.5 0-1-.5-1-1 0-.6.5-1 1-1 .6 0 1 .4 1 1zm103 .5c0 .8-.7 1.5-1.5 1.5s-1.5-.7-1.5-1.5.7-1.5 1.5-1.5 1.5.7 1.5 1.5zm-108 3.3c0 1.3-1.2 2.2-2.2 1.6s-.1-2.4 1.3-2.4c.5 0 .9.4.9.8zm36.4 4.3c-.3.5-1 .7-1.5.3-.5-.3-.7-1-.3-1.5.3-.5 1-.7 1.5-.3.5.3.7 1 .3 1.5zm-10.4 3.9c0 .5-.4 1-1 1-.5 0-1-.5-1-1 0-.6.5-1 1-1 .6 0 1 .4 1 1zm-24 3.6c0 .8-.9 1.4-2 1.4-2.2 0-2.6-1-.8-2.8 1.3-1.3 2.8-.7 2.8 1.4zm17 9.9c0 1.9-2 2.9-3.2 1.7-.8-.8-.7-1.6.2-2.6 1.4-1.7 3-1.2 3 .9zm-7.2 2.2c-.4 2.2-2.2 2-2.6-.1-.2-1 .3-1.6 1.3-1.6s1.5.7 1.3 1.7zm-26 3c-.4 2.2-2.2 2-2.6-.1-.2-1 .3-1.6 1.3-1.6s1.5.7 1.3 1.7zm20.2 10.9c0 .8-.7 1.4-1.5 1.4-1.5 0-2.1-2.1-.9-3.3 1-.9 2.4.2 2.4 1.9z"/></svg>